{
 "cells": [
  {
   "cell_type": "code",
   "execution_count": 84,
   "metadata": {
    "collapsed": true
   },
   "outputs": [],
   "source": [
    "import mido as md\n",
    "import numpy as np\n",
    "from collections import defaultdict\n",
    "from sklearn import preprocessing"
   ]
  },
  {
   "cell_type": "code",
   "execution_count": 3,
   "metadata": {
    "collapsed": true
   },
   "outputs": [],
   "source": [
    "def generate_transition_probs(filepath):\n",
    "    poops = []\n",
    "    song = md.MidiFile(filepath)\n",
    "    \n",
    "    for track in song.tracks:\n",
    "        poop = np.zeros((127, 127))\n",
    "        prevnote = None\n",
    "        n = np.zeros(127)\n",
    "        for msg in track:\n",
    "            x = vars(msg)\n",
    "            if x['type'] == 'note_on' and x['velocity'] != 0:\n",
    "                note = x['note']\n",
    "                if prevnote is not None:\n",
    "                    poop[prevnote][note] += 1\n",
    "                    n[prevnote] += 1\n",
    "                prevnote = note\n",
    "\n",
    "        for i in range(127):\n",
    "            if (n[i] != 0):\n",
    "                poop[i] /= n[i]\n",
    "        poops.append(poop)\n",
    "    return poops\n"
   ]
  },
  {
   "cell_type": "code",
   "execution_count": 4,
   "metadata": {
    "collapsed": true
   },
   "outputs": [],
   "source": [
    "def transpose(filepath, offset):\n",
    "    result = md.MidiFile()\n",
    "    \n",
    "    song = md.MidiFile(filepath)\n",
    "    for track in song.tracks:\n",
    "        newtrack = md.MidiTrack()\n",
    "        result.tracks.append(newtrack)\n",
    "        for msg in track:\n",
    "            x = vars(msg)\n",
    "            if x['type'] == 'note_on':\n",
    "                note = x['note']\n",
    "                note += offset\n",
    "                newmessage = md.Message('note_on', note=note, velocity=x['velocity'], time=x['time'])\n",
    "                newtrack.append(newmessage)\n",
    "            else:\n",
    "                newtrack.append(msg)\n",
    "    result.save(\"midis/1.mid\")"
   ]
  },
  {
   "cell_type": "code",
   "execution_count": 5,
   "metadata": {
    "collapsed": true
   },
   "outputs": [],
   "source": [
    "def findKeySignature(song):\n",
    "    for i, track in enumerate(song.tracks):\n",
    "        for msg in track:\n",
    "            if msg.type == 'key_signature':\n",
    "                return msg.key\n",
    "            \n",
    "def findTransposeOffset(filepath):\n",
    "    song = md.MidiFile(filepath)\n",
    "    keys = ['C', 'C#/Db', 'D', 'D#/Eb', 'E', 'F', 'F#/Gb', 'G', 'G#/Ab', 'A', 'A#/Bb', 'B']\n",
    "    keySig = findKeySignature(song)\n",
    "    print(keySig)\n",
    "    for i in range(len(keys)):\n",
    "        if keySig in keys[i]:\n",
    "            offset = i\n",
    "            break\n",
    "    return offset\n",
    "\n",
    "def removeZeroNotes(matrix):\n",
    "    for j in (len(matrix)):\n",
    "        i = len(matrix) - j - 1\n",
    "        if not row.any(): #this means it's all zero\n",
    "            np.delete(matrix, i, 0)\n",
    "            np.delete(matrix, i, 1)\n",
    "    return matrix\n",
    "    \n",
    "    \n",
    "def findStationaryDist(matrix):\n",
    "    try:\n",
    "        w, v = np.linalg.eig(matrix.T)\n",
    "    except LinAlgError as e:\n",
    "        return None\n",
    "    if 1 in w:\n",
    "        return v[list(w).index(1)]\n",
    "    else:\n",
    "        return None"
   ]
  },
  {
   "cell_type": "code",
   "execution_count": null,
   "metadata": {
    "collapsed": true
   },
   "outputs": [],
   "source": []
  },
  {
   "cell_type": "markdown",
   "metadata": {},
   "source": [
    "\n",
    "# dicking around and trying to make the left hand/right hand stuff better"
   ]
  },
  {
   "cell_type": "code",
   "execution_count": 87,
   "metadata": {},
   "outputs": [],
   "source": [
    "song = md.MidiFile('./midis/chopinblack.mid')"
   ]
  },
  {
   "cell_type": "code",
   "execution_count": 88,
   "metadata": {
    "collapsed": true
   },
   "outputs": [],
   "source": [
    "absoluteList = defaultdict(list)\n",
    "\n",
    "for i, track in enumerate(song.tracks):\n",
    "    for msg in track:\n",
    "        if msg.type == 'note_on' and msg.velocity:\n",
    "            absoluteList[i].append(msg)\n",
    "    \n",
    "    ####THIS IS BOUND TO FUCK UP AND HAVE MULTIPLE POTENTIAL LEFT/RIGHT HAND TRACKS, OR EVEN EMPTY TRACKS\n",
    "    ####I MANUALLY INDEXED FOR NOW BELOW\n",
    "\n",
    "\n",
    "absoluteTime = 0\n",
    "rightHandTrack = []\n",
    "leftHandTrack = []\n",
    "for msg in absoluteList[1]:\n",
    "    rightHandTrack.append((absoluteTime, msg.note, 1))\n",
    "    absoluteTime += msg.time\n",
    "    \n",
    "absoluteTime = 0  \n",
    "for msg in absoluteList[2]:\n",
    "    leftHandTrack.append((absoluteTime, msg.note, 2))\n",
    "    absoluteTime += msg.time\n",
    "\n",
    "combined = rightHandTrack + leftHandTrack"
   ]
  },
  {
   "cell_type": "code",
   "execution_count": 89,
   "metadata": {},
   "outputs": [],
   "source": [
    "#now, calculate transition probabilities for R->L. 'Combined' has tuples of (time, note, hand)\n",
    "combined = sorted(combined, key=lambda x: x[0])\n",
    "pMatrix = np.zeros((256, 256))\n",
    "prevNote = None\n",
    "for note in combined:\n",
    "    if prevNote:\n",
    "        pMatrix[prevNote][note[1]+(128*(note[2]-1))] += 1\n",
    "    prevNote = note[1]+(128*(note[2]-1))\n",
    "        \n",
    "pMatrix = preprocessing.normalize(pMatrix, axis=1, norm='l1')\n",
    "    \n",
    "#now, given this pMatrix, need to 'step through' it - HOWEVER\n",
    "#for the coordinate generated, needs to be placed in a separate track\n",
    "\n",
    "songLength = 500\n",
    "starting_note = 66\n",
    "\n",
    "from mido import Message, MidiFile, MidiTrack\n",
    "\n",
    "delta = 240\n",
    "current_note = starting_note\n",
    "\n",
    "outfile = MidiFile()\n",
    "trackRight = MidiTrack()\n",
    "trackLeft = MidiTrack()\n",
    "outfile.tracks.append(trackRight)\n",
    "outfile.tracks.append(trackLeft)\n",
    "trackRight.append(Message('program_change', program=12))\n",
    "trackLeft.append(Message('program_change', program=12))\n",
    "\n",
    "right = True\n",
    "for i in range(songLength):\n",
    "    if right:\n",
    "        track = trackRight\n",
    "    else:\n",
    "        track = trackLeft\n",
    "    \n",
    "    track.append(Message('note_on', note = current_note%128, velocity = 60, time = delta))\n",
    "    track.append(Message('note_on', note = current_note%128, velocity = 0, time = 80))\n",
    "    possibleNexts = {i:pMatrix[current_note][i] for i in range(256) if pMatrix[current_note][i] > 0}\n",
    "    notes = list(possibleNexts.keys())\n",
    "    probabilities = [possibleNexts[n] for n in notes]\n",
    "    prev_note = current_note\n",
    "    current_note = np.random.choice(notes, 1, p=probabilities)[0]\n",
    "    if current_note//128 != prev_note//128:\n",
    "        right = not right\n",
    "        \n",
    "\n",
    "trackLeft.append(Message('program_change', program=12))\n",
    "\n",
    "outfile.save('./testBach2.mid')"
   ]
  },
  {
   "cell_type": "code",
   "execution_count": 90,
   "metadata": {},
   "outputs": [
    {
     "data": {
      "text/plain": [
       "<midi track '' 621 messages>"
      ]
     },
     "execution_count": 90,
     "metadata": {},
     "output_type": "execute_result"
    }
   ],
   "source": [
    "trackRight"
   ]
  },
  {
   "cell_type": "code",
   "execution_count": 86,
   "metadata": {},
   "outputs": [
    {
     "name": "stdout",
     "output_type": "stream",
     "text": [
      "0\n",
      "1\n",
      "note_on channel=0 note=90 velocity=99 time=1\n",
      "note_on channel=0 note=94 velocity=76 time=79\n",
      "note_on channel=0 note=85 velocity=69 time=0\n",
      "note_on channel=0 note=90 velocity=93 time=0\n",
      "note_on channel=0 note=87 velocity=79 time=0\n",
      "note_on channel=0 note=90 velocity=73 time=0\n",
      "note_on channel=0 note=85 velocity=92 time=0\n",
      "note_on channel=0 note=90 velocity=78 time=0\n",
      "note_on channel=0 note=82 velocity=71 time=0\n",
      "note_on channel=0 note=85 velocity=84 time=0\n",
      "note_on channel=0 note=78 velocity=72 time=0\n",
      "note_on channel=0 note=82 velocity=68 time=0\n",
      "note_on channel=0 note=78 velocity=74 time=0\n",
      "note_on channel=0 note=82 velocity=64 time=0\n",
      "note_on channel=0 note=73 velocity=58 time=0\n",
      "note_on channel=0 note=78 velocity=71 time=0\n",
      "note_on channel=0 note=75 velocity=63 time=0\n",
      "note_on channel=0 note=78 velocity=57 time=0\n",
      "note_on channel=0 note=73 velocity=69 time=0\n",
      "note_on channel=0 note=78 velocity=56 time=0\n",
      "note_on channel=0 note=70 velocity=56 time=0\n",
      "note_on channel=0 note=73 velocity=67 time=0\n",
      "note_on channel=0 note=66 velocity=55 time=0\n",
      "note_on channel=0 note=70 velocity=53 time=0\n",
      "note_on channel=0 note=61 velocity=74 time=0\n",
      "note_on channel=0 note=73 velocity=69 time=0\n",
      "note_on channel=0 note=68 velocity=63 time=0\n",
      "note_on channel=0 note=73 velocity=75 time=0\n",
      "note_on channel=0 note=68 velocity=67 time=0\n",
      "note_on channel=0 note=80 velocity=61 time=0\n",
      "note_on channel=0 note=68 velocity=75 time=0\n",
      "note_on channel=0 note=80 velocity=68 time=0\n",
      "note_on channel=0 note=75 velocity=61 time=0\n",
      "note_on channel=0 note=80 velocity=81 time=0\n",
      "note_on channel=0 note=75 velocity=74 time=0\n",
      "note_on channel=0 note=87 velocity=70 time=0\n",
      "note_on channel=0 note=75 velocity=82 time=0\n",
      "note_on channel=0 note=87 velocity=73 time=0\n",
      "note_on channel=0 note=80 velocity=68 time=0\n",
      "note_on channel=0 note=87 velocity=86 time=0\n",
      "note_on channel=0 note=80 velocity=69 time=0\n",
      "note_on channel=0 note=92 velocity=67 time=0\n",
      "note_on channel=0 note=80 velocity=89 time=0\n",
      "note_on channel=0 note=92 velocity=77 time=0\n",
      "note_on channel=0 note=85 velocity=75 time=0\n",
      "note_on channel=0 note=92 velocity=92 time=0\n",
      "note_on channel=0 note=85 velocity=83 time=0\n",
      "note_on channel=0 note=97 velocity=78 time=0\n",
      "note_on channel=0 note=90 velocity=96 time=0\n",
      "note_on channel=0 note=94 velocity=78 time=0\n",
      "note_on channel=0 note=85 velocity=75 time=0\n",
      "note_on channel=0 note=90 velocity=95 time=0\n",
      "note_on channel=0 note=87 velocity=77 time=0\n",
      "note_on channel=0 note=90 velocity=74 time=0\n",
      "note_on channel=0 note=85 velocity=95 time=0\n",
      "note_on channel=0 note=90 velocity=76 time=0\n",
      "note_on channel=0 note=82 velocity=74 time=0\n",
      "note_on channel=0 note=85 velocity=85 time=0\n",
      "note_on channel=0 note=78 velocity=75 time=0\n",
      "note_on channel=0 note=82 velocity=70 time=0\n",
      "note_on channel=0 note=78 velocity=74 time=0\n",
      "note_on channel=0 note=82 velocity=69 time=0\n",
      "note_on channel=0 note=73 velocity=65 time=0\n",
      "note_on channel=0 note=78 velocity=74 time=0\n",
      "note_on channel=0 note=75 velocity=69 time=0\n",
      "note_on channel=0 note=78 velocity=66 time=0\n",
      "note_on channel=0 note=73 velocity=74 time=0\n",
      "note_on channel=0 note=78 velocity=67 time=0\n",
      "note_on channel=0 note=70 velocity=70 time=0\n",
      "note_on channel=0 note=73 velocity=74 time=0\n",
      "note_on channel=0 note=66 velocity=65 time=0\n",
      "note_on channel=0 note=70 velocity=68 time=0\n",
      "note_on channel=0 note=63 velocity=77 time=0\n",
      "note_on channel=0 note=75 velocity=69 time=0\n",
      "note_on channel=0 note=68 velocity=66 time=0\n",
      "note_on channel=0 note=75 velocity=77 time=0\n",
      "note_on channel=0 note=68 velocity=67 time=0\n",
      "note_on channel=0 note=80 velocity=71 time=0\n",
      "note_on channel=0 note=75 velocity=77 time=0\n",
      "note_on channel=0 note=80 velocity=74 time=0\n",
      "note_on channel=0 note=75 velocity=70 time=0\n",
      "note_on channel=0 note=87 velocity=82 time=0\n",
      "note_on channel=0 note=80 velocity=73 time=0\n",
      "note_on channel=0 note=92 velocity=75 time=0\n",
      "note_on channel=0 note=82 velocity=88 time=0\n",
      "note_on channel=0 note=94 velocity=78 time=0\n",
      "note_on channel=0 note=82 velocity=70 time=0\n",
      "note_on channel=0 note=94 velocity=81 time=0\n",
      "note_on channel=0 note=82 velocity=75 time=0\n",
      "note_on channel=0 note=94 velocity=70 time=0\n",
      "note_on channel=0 note=82 velocity=68 time=0\n",
      "note_on channel=0 note=94 velocity=62 time=0\n",
      "note_on channel=0 note=82 velocity=53 time=0\n",
      "note_on channel=0 note=94 velocity=59 time=0\n",
      "note_on channel=0 note=82 velocity=53 time=0\n",
      "note_on channel=0 note=94 velocity=45 time=0\n",
      "note_on channel=0 note=90 velocity=96 time=1\n",
      "note_on channel=0 note=94 velocity=73 time=79\n",
      "note_on channel=0 note=85 velocity=67 time=0\n",
      "note_on channel=0 note=90 velocity=90 time=0\n",
      "note_on channel=0 note=87 velocity=67 time=0\n",
      "note_on channel=0 note=90 velocity=59 time=0\n",
      "note_on channel=0 note=85 velocity=93 time=0\n",
      "note_on channel=0 note=90 velocity=68 time=0\n",
      "note_on channel=0 note=82 velocity=66 time=0\n",
      "note_on channel=0 note=85 velocity=84 time=0\n",
      "note_on channel=0 note=78 velocity=66 time=0\n",
      "note_on channel=0 note=82 velocity=63 time=0\n",
      "note_on channel=0 note=78 velocity=74 time=0\n",
      "note_on channel=0 note=82 velocity=66 time=0\n",
      "note_on channel=0 note=73 velocity=63 time=0\n",
      "note_on channel=0 note=78 velocity=68 time=0\n",
      "note_on channel=0 note=75 velocity=65 time=0\n",
      "note_on channel=0 note=78 velocity=62 time=0\n",
      "note_on channel=0 note=73 velocity=74 time=0\n",
      "note_on channel=0 note=78 velocity=65 time=0\n",
      "note_on channel=0 note=70 velocity=61 time=0\n",
      "note_on channel=0 note=73 velocity=74 time=0\n",
      "note_on channel=0 note=66 velocity=67 time=0\n",
      "note_on channel=0 note=70 velocity=65 time=0\n",
      "note_on channel=0 note=61 velocity=74 time=0\n",
      "note_on channel=0 note=73 velocity=71 time=0\n",
      "note_on channel=0 note=68 velocity=67 time=0\n",
      "note_on channel=0 note=73 velocity=75 time=0\n",
      "note_on channel=0 note=68 velocity=70 time=0\n",
      "note_on channel=0 note=80 velocity=65 time=0\n",
      "note_on channel=0 note=68 velocity=72 time=0\n",
      "note_on channel=0 note=80 velocity=70 time=0\n",
      "note_on channel=0 note=75 velocity=67 time=0\n",
      "note_on channel=0 note=80 velocity=78 time=0\n",
      "note_on channel=0 note=75 velocity=74 time=0\n",
      "note_on channel=0 note=87 velocity=72 time=0\n",
      "note_on channel=0 note=75 velocity=82 time=0\n",
      "note_on channel=0 note=87 velocity=78 time=0\n",
      "note_on channel=0 note=80 velocity=78 time=0\n",
      "note_on channel=0 note=87 velocity=80 time=0\n",
      "note_on channel=0 note=80 velocity=77 time=0\n",
      "note_on channel=0 note=92 velocity=73 time=0\n",
      "note_on channel=0 note=80 velocity=88 time=0\n",
      "note_on channel=0 note=92 velocity=81 time=0\n",
      "note_on channel=0 note=85 velocity=73 time=0\n",
      "note_on channel=0 note=92 velocity=92 time=0\n",
      "note_on channel=0 note=85 velocity=83 time=0\n",
      "note_on channel=0 note=97 velocity=83 time=0\n",
      "note_on channel=0 note=90 velocity=98 time=0\n",
      "note_on channel=0 note=94 velocity=74 time=0\n",
      "note_on channel=0 note=85 velocity=70 time=0\n",
      "note_on channel=0 note=90 velocity=93 time=0\n",
      "note_on channel=0 note=87 velocity=72 time=0\n",
      "note_on channel=0 note=90 velocity=73 time=0\n",
      "note_on channel=0 note=85 velocity=96 time=0\n",
      "note_on channel=0 note=90 velocity=75 time=0\n",
      "note_on channel=0 note=82 velocity=68 time=0\n",
      "note_on channel=0 note=85 velocity=84 time=0\n",
      "note_on channel=0 note=78 velocity=69 time=0\n",
      "note_on channel=0 note=82 velocity=64 time=0\n",
      "note_on channel=0 note=78 velocity=74 time=0\n",
      "note_on channel=0 note=82 velocity=68 time=0\n",
      "note_on channel=0 note=73 velocity=62 time=0\n",
      "note_on channel=0 note=78 velocity=71 time=0\n",
      "note_on channel=0 note=75 velocity=65 time=0\n",
      "note_on channel=0 note=78 velocity=67 time=0\n",
      "note_on channel=0 note=73 velocity=74 time=0\n",
      "note_on channel=0 note=78 velocity=65 time=0\n",
      "note_on channel=0 note=70 velocity=59 time=0\n",
      "note_on channel=0 note=73 velocity=74 time=0\n",
      "note_on channel=0 note=66 velocity=65 time=0\n",
      "note_on channel=0 note=70 velocity=59 time=0\n",
      "note_on channel=0 note=63 velocity=77 time=0\n",
      "note_on channel=0 note=75 velocity=74 time=0\n",
      "note_on channel=0 note=68 velocity=67 time=0\n",
      "note_on channel=0 note=75 velocity=77 time=0\n",
      "note_on channel=0 note=68 velocity=67 time=0\n",
      "note_on channel=0 note=80 velocity=70 time=0\n",
      "note_on channel=0 note=75 velocity=75 time=0\n",
      "note_on channel=0 note=80 velocity=71 time=0\n",
      "note_on channel=0 note=75 velocity=67 time=0\n",
      "note_on channel=0 note=87 velocity=82 time=0\n",
      "note_on channel=0 note=80 velocity=79 time=0\n",
      "note_on channel=0 note=87 velocity=74 time=0\n",
      "note_on channel=0 note=75 velocity=85 time=0\n",
      "note_on channel=0 note=87 velocity=74 time=0\n",
      "note_on channel=0 note=80 velocity=71 time=0\n",
      "note_on channel=0 note=87 velocity=88 time=0\n",
      "note_on channel=0 note=73 velocity=76 time=0\n",
      "note_on channel=0 note=85 velocity=72 time=0\n",
      "note_on channel=0 note=80 velocity=81 time=0\n",
      "note_on channel=0 note=85 velocity=73 time=0\n",
      "note_on channel=0 note=80 velocity=67 time=0\n",
      "note_on channel=0 note=92 velocity=70 time=0\n",
      "note_on channel=0 note=85 velocity=66 time=0\n",
      "note_on channel=0 note=97 velocity=64 time=0\n",
      "note_on channel=0 note=92 velocity=72 time=0\n",
      "note_on channel=0 note=94 velocity=67 time=0\n",
      "note_on channel=0 note=92 velocity=61 time=0\n",
      "note_on channel=0 note=87 velocity=72 time=0\n",
      "note_on channel=0 note=99 velocity=67 time=0\n",
      "note_on channel=0 note=87 velocity=58 time=0\n",
      "note_on channel=0 note=85 velocity=78 time=0\n",
      "note_on channel=0 note=87 velocity=74 time=0\n",
      "note_on channel=0 note=85 velocity=68 time=0\n",
      "note_on channel=0 note=80 velocity=75 time=0\n",
      "note_on channel=0 note=92 velocity=71 time=0\n",
      "note_on channel=0 note=80 velocity=66 time=0\n",
      "note_on channel=0 note=80 velocity=72 time=0\n",
      "note_on channel=0 note=82 velocity=67 time=0\n",
      "note_on channel=0 note=80 velocity=65 time=0\n",
      "note_on channel=0 note=75 velocity=72 time=0\n",
      "note_on channel=0 note=87 velocity=67 time=0\n",
      "note_on channel=0 note=75 velocity=67 time=0\n",
      "note_on channel=0 note=73 velocity=75 time=0\n",
      "note_on channel=0 note=75 velocity=68 time=0\n",
      "note_on channel=0 note=73 velocity=67 time=0\n",
      "note_on channel=0 note=68 velocity=72 time=0\n",
      "note_on channel=0 note=75 velocity=70 time=0\n",
      "note_on channel=0 note=80 velocity=67 time=0\n",
      "note_on channel=0 note=82 velocity=74 time=0\n",
      "note_on channel=0 note=80 velocity=70 time=0\n",
      "note_on channel=0 note=75 velocity=67 time=0\n",
      "note_on channel=0 note=73 velocity=71 time=0\n",
      "note_on channel=0 note=80 velocity=73 time=0\n",
      "note_on channel=0 note=85 velocity=72 time=0\n",
      "note_on channel=0 note=87 velocity=74 time=0\n",
      "note_on channel=0 note=85 velocity=69 time=0\n",
      "note_on channel=0 note=82 velocity=67 time=0\n",
      "note_on channel=0 note=80 velocity=72 time=0\n",
      "note_on channel=0 note=87 velocity=69 time=0\n",
      "note_on channel=0 note=92 velocity=67 time=0\n",
      "note_on channel=0 note=94 velocity=72 time=0\n",
      "note_on channel=0 note=92 velocity=64 time=0\n",
      "note_on channel=0 note=87 velocity=59 time=0\n",
      "note_on channel=0 note=85 velocity=77 time=0\n",
      "note_on channel=0 note=92 velocity=73 time=0\n",
      "note_on channel=0 note=97 velocity=68 time=0\n",
      "note_on channel=0 note=99 velocity=72 time=0\n",
      "note_on channel=0 note=97 velocity=68 time=0\n",
      "note_on channel=0 note=94 velocity=68 time=0\n",
      "note_on channel=0 note=92 velocity=72 time=0\n",
      "note_on channel=0 note=94 velocity=69 time=0\n",
      "note_on channel=0 note=92 velocity=63 time=0\n",
      "note_on channel=0 note=87 velocity=72 time=0\n",
      "note_on channel=0 note=99 velocity=67 time=0\n",
      "note_on channel=0 note=87 velocity=72 time=0\n",
      "note_on channel=0 note=85 velocity=81 time=0\n",
      "note_on channel=0 note=87 velocity=73 time=0\n",
      "note_on channel=0 note=85 velocity=67 time=0\n",
      "note_on channel=0 note=80 velocity=77 time=0\n",
      "note_on channel=0 note=92 velocity=75 time=0\n",
      "note_on channel=0 note=80 velocity=67 time=0\n",
      "note_on channel=0 note=80 velocity=79 time=0\n",
      "note_on channel=0 note=82 velocity=70 time=0\n",
      "note_on channel=0 note=80 velocity=65 time=0\n",
      "note_on channel=0 note=75 velocity=73 time=0\n",
      "note_on channel=0 note=87 velocity=68 time=0\n",
      "note_on channel=0 note=75 velocity=65 time=0\n",
      "note_on channel=0 note=73 velocity=75 time=0\n",
      "note_on channel=0 note=75 velocity=69 time=0\n",
      "note_on channel=0 note=73 velocity=63 time=0\n",
      "note_on channel=0 note=68 velocity=75 time=0\n",
      "note_on channel=0 note=80 velocity=67 time=0\n",
      "note_on channel=0 note=78 velocity=64 time=0\n",
      "note_on channel=0 note=80 velocity=75 time=0\n",
      "note_on channel=0 note=78 velocity=68 time=0\n",
      "note_on channel=0 note=80 velocity=65 time=0\n",
      "note_on channel=0 note=90 velocity=82 time=0\n",
      "note_on channel=0 note=80 velocity=71 time=0\n",
      "note_on channel=0 note=78 velocity=65 time=0\n",
      "note_on channel=0 note=80 velocity=74 time=0\n",
      "note_on channel=0 note=78 velocity=67 time=0\n",
      "note_on channel=0 note=80 velocity=64 time=0\n",
      "note_on channel=0 note=68 velocity=64 time=0\n",
      "note_on channel=0 note=80 velocity=68 time=0\n",
      "note_on channel=0 note=78 velocity=63 time=0\n",
      "note_on channel=0 note=80 velocity=71 time=0\n",
      "note_on channel=0 note=78 velocity=65 time=0\n",
      "note_on channel=0 note=80 velocity=62 time=0\n",
      "note_on channel=0 note=90 velocity=81 time=0\n",
      "note_on channel=0 note=80 velocity=67 time=0\n",
      "note_on channel=0 note=78 velocity=63 time=0\n",
      "note_on channel=0 note=80 velocity=69 time=0\n",
      "note_on channel=0 note=78 velocity=67 time=0\n",
      "note_on channel=0 note=80 velocity=64 time=0\n",
      "note_on channel=0 note=70 velocity=70 time=0\n",
      "note_on channel=0 note=82 velocity=74 time=0\n",
      "note_on channel=0 note=78 velocity=66 time=0\n",
      "note_on channel=0 note=82 velocity=74 time=0\n",
      "note_on channel=0 note=78 velocity=70 time=0\n",
      "note_on channel=0 note=82 velocity=66 time=0\n",
      "note_on channel=0 note=90 velocity=83 time=0\n",
      "note_on channel=0 note=82 velocity=71 time=0\n",
      "note_on channel=0 note=78 velocity=68 time=0\n",
      "note_on channel=0 note=82 velocity=77 time=0\n",
      "note_on channel=0 note=78 velocity=72 time=0\n",
      "note_on channel=0 note=82 velocity=67 time=0\n",
      "note_on channel=0 note=70 velocity=73 time=0\n",
      "note_on channel=0 note=82 velocity=75 time=0\n",
      "note_on channel=0 note=78 velocity=72 time=0\n",
      "note_on channel=0 note=82 velocity=78 time=0\n",
      "note_on channel=0 note=78 velocity=72 time=0\n",
      "note_on channel=0 note=82 velocity=67 time=0\n",
      "note_on channel=0 note=90 velocity=85 time=0\n",
      "note_on channel=0 note=82 velocity=74 time=0\n",
      "note_on channel=0 note=78 velocity=71 time=0\n",
      "note_on channel=0 note=82 velocity=80 time=0\n",
      "note_on channel=0 note=78 velocity=77 time=0\n",
      "note_on channel=0 note=82 velocity=74 time=0\n",
      "note_on channel=0 note=78 velocity=80 time=0\n",
      "note_on channel=0 note=82 velocity=77 time=0\n",
      "note_on channel=0 note=78 velocity=78 time=0\n",
      "note_on channel=0 note=94 velocity=87 time=0\n",
      "note_on channel=0 note=82 velocity=76 time=20\n",
      "note_on channel=0 note=78 velocity=70 time=0\n",
      "note_on channel=0 note=92 velocity=89 time=0\n",
      "note_on channel=0 note=82 velocity=70 time=20\n",
      "note_on channel=0 note=78 velocity=73 time=0\n",
      "note_on channel=0 note=90 velocity=89 time=0\n",
      "note_on channel=0 note=82 velocity=78 time=20\n",
      "note_on channel=0 note=78 velocity=73 time=0\n",
      "note_on channel=0 note=85 velocity=80 time=0\n",
      "note_on channel=0 note=82 velocity=73 time=0\n",
      "note_on channel=0 note=78 velocity=76 time=0\n",
      "note_on channel=0 note=94 velocity=90 time=0\n",
      "note_on channel=0 note=82 velocity=76 time=20\n",
      "note_on channel=0 note=78 velocity=79 time=0\n",
      "note_on channel=0 note=92 velocity=94 time=0\n",
      "note_on channel=0 note=82 velocity=77 time=20\n",
      "note_on channel=0 note=78 velocity=76 time=0\n",
      "note_on channel=0 note=90 velocity=95 time=0\n",
      "note_on channel=0 note=82 velocity=76 time=20\n",
      "note_on channel=0 note=78 velocity=79 time=0\n",
      "note_on channel=0 note=73 velocity=87 time=0\n",
      "note_on channel=0 note=85 velocity=78 time=0\n",
      "note_on channel=0 note=82 velocity=75 time=0\n",
      "note_on channel=0 note=85 velocity=88 time=0\n",
      "note_on channel=0 note=85 velocity=75 time=0\n",
      "note_on channel=0 note=97 velocity=80 time=0\n",
      "note_on channel=0 note=94 velocity=94 time=0\n",
      "note_on channel=0 note=97 velocity=77 time=0\n",
      "note_on channel=0 note=85 velocity=76 time=0\n",
      "note_on channel=0 note=85 velocity=89 time=0\n",
      "note_on channel=0 note=82 velocity=77 time=0\n",
      "note_on channel=0 note=85 velocity=82 time=0\n",
      "note_on channel=0 note=73 velocity=89 time=0\n",
      "note_on channel=0 note=85 velocity=85 time=0\n",
      "note_on channel=0 note=82 velocity=81 time=0\n",
      "note_on channel=0 note=85 velocity=90 time=0\n",
      "note_on channel=0 note=85 velocity=85 time=0\n",
      "note_on channel=0 note=97 velocity=85 time=0\n",
      "note_on channel=0 note=94 velocity=101 time=0\n",
      "note_on channel=0 note=97 velocity=86 time=0\n",
      "note_on channel=0 note=85 velocity=84 time=0\n",
      "note_on channel=0 note=85 velocity=93 time=0\n",
      "note_on channel=0 note=82 velocity=85 time=0\n",
      "note_on channel=0 note=85 velocity=80 time=0\n",
      "note_on channel=0 note=73 velocity=94 time=0\n",
      "note_on channel=0 note=85 velocity=85 time=0\n",
      "note_on channel=0 note=82 velocity=81 time=0\n",
      "note_on channel=0 note=85 velocity=94 time=0\n",
      "note_on channel=0 note=85 velocity=84 time=0\n",
      "note_on channel=0 note=97 velocity=80 time=0\n",
      "note_on channel=0 note=92 velocity=95 time=0\n",
      "note_on channel=0 note=97 velocity=85 time=0\n",
      "note_on channel=0 note=85 velocity=83 time=0\n",
      "note_on channel=0 note=85 velocity=95 time=0\n",
      "note_on channel=0 note=80 velocity=90 time=0\n",
      "note_on channel=0 note=85 velocity=86 time=0\n",
      "note_on channel=0 note=73 velocity=97 time=0\n",
      "note_on channel=0 note=85 velocity=90 time=0\n",
      "note_on channel=0 note=78 velocity=85 time=0\n",
      "note_on channel=0 note=85 velocity=93 time=0\n",
      "note_on channel=0 note=73 velocity=87 time=0\n",
      "note_on channel=0 note=73 velocity=84 time=0\n",
      "note_on channel=0 note=66 velocity=95 time=0\n",
      "note_on channel=0 note=73 velocity=90 time=0\n",
      "note_on channel=0 note=61 velocity=85 time=0\n",
      "note_on channel=0 note=61 velocity=100 time=0\n",
      "note_on channel=0 note=54 velocity=89 time=0\n",
      "note_on channel=0 note=61 velocity=85 time=0\n",
      "note_on channel=0 note=51 velocity=74 time=0\n",
      "note_on channel=0 note=54 velocity=71 time=0\n",
      "note_on channel=0 note=61 velocity=72 time=0\n",
      "note_on channel=0 note=63 velocity=77 time=0\n",
      "note_on channel=0 note=54 velocity=70 time=0\n",
      "note_on channel=0 note=61 velocity=72 time=0\n",
      "note_on channel=0 note=63 velocity=81 time=0\n",
      "note_on channel=0 note=66 velocity=78 time=0\n",
      "note_on channel=0 note=61 velocity=75 time=0\n",
      "note_on channel=0 note=63 velocity=83 time=0\n",
      "note_on channel=0 note=66 velocity=77 time=0\n",
      "note_on channel=0 note=73 velocity=73 time=0\n",
      "note_on channel=0 note=63 velocity=87 time=0\n",
      "note_on channel=0 note=66 velocity=80 time=0\n",
      "note_on channel=0 note=73 velocity=77 time=0\n",
      "note_on channel=0 note=75 velocity=89 time=0\n",
      "note_on channel=0 note=66 velocity=78 time=0\n",
      "note_on channel=0 note=73 velocity=75 time=0\n",
      "note_on channel=0 note=75 velocity=89 time=0\n",
      "note_on channel=0 note=78 velocity=78 time=0\n",
      "note_on channel=0 note=73 velocity=76 time=0\n",
      "note_on channel=0 note=75 velocity=89 time=0\n",
      "note_on channel=0 note=85 velocity=78 time=0\n",
      "note_on channel=0 note=78 velocity=75 time=0\n",
      "note_on channel=0 note=75 velocity=89 time=0\n",
      "note_on channel=0 note=78 velocity=81 time=0\n",
      "note_on channel=0 note=87 velocity=86 time=0\n",
      "note_on channel=0 note=85 velocity=85 time=0\n",
      "note_on channel=0 note=78 velocity=78 time=0\n",
      "note_on channel=0 note=75 velocity=84 time=0\n",
      "note_on channel=0 note=85 velocity=81 time=0\n",
      "note_on channel=0 note=78 velocity=76 time=0\n",
      "note_on channel=0 note=75 velocity=71 time=0\n",
      "note_on channel=0 note=73 velocity=78 time=0\n",
      "note_on channel=0 note=78 velocity=71 time=0\n",
      "note_on channel=0 note=75 velocity=75 time=0\n",
      "note_on channel=0 note=73 velocity=74 time=0\n",
      "note_on channel=0 note=66 velocity=69 time=0\n",
      "note_on channel=0 note=75 velocity=72 time=0\n",
      "note_on channel=0 note=73 velocity=71 time=0\n",
      "note_on channel=0 note=66 velocity=66 time=0\n",
      "note_on channel=0 note=63 velocity=69 time=0\n",
      "note_on channel=0 note=73 velocity=67 time=0\n",
      "note_on channel=0 note=66 velocity=61 time=0\n",
      "note_on channel=0 note=63 velocity=65 time=0\n",
      "note_on channel=0 note=61 velocity=64 time=0\n",
      "note_on channel=0 note=66 velocity=59 time=0\n",
      "note_on channel=0 note=63 velocity=62 time=0\n",
      "note_on channel=0 note=56 velocity=52 time=0\n",
      "note_on channel=0 note=63 velocity=54 time=0\n",
      "note_on channel=0 note=66 velocity=54 time=0\n",
      "note_on channel=0 note=68 velocity=56 time=0\n",
      "note_on channel=0 note=63 velocity=56 time=0\n",
      "note_on channel=0 note=66 velocity=54 time=0\n",
      "note_on channel=0 note=68 velocity=58 time=0\n",
      "note_on channel=0 note=75 velocity=58 time=0\n",
      "note_on channel=0 note=66 velocity=56 time=0\n",
      "note_on channel=0 note=68 velocity=60 time=0\n",
      "note_on channel=0 note=75 velocity=60 time=0\n",
      "note_on channel=0 note=78 velocity=58 time=0\n",
      "note_on channel=0 note=68 velocity=62 time=0\n",
      "note_on channel=0 note=75 velocity=58 time=0\n",
      "note_on channel=0 note=78 velocity=62 time=0\n",
      "note_on channel=0 note=80 velocity=62 time=0\n",
      "note_on channel=0 note=75 velocity=54 time=0\n",
      "note_on channel=0 note=78 velocity=58 time=0\n",
      "note_on channel=0 note=80 velocity=62 time=0\n",
      "note_on channel=0 note=87 velocity=65 time=0\n",
      "note_on channel=0 note=78 velocity=60 time=0\n",
      "note_on channel=0 note=80 velocity=62 time=0\n",
      "note_on channel=0 note=90 velocity=58 time=0\n",
      "note_on channel=0 note=87 velocity=59 time=0\n",
      "note_on channel=0 note=80 velocity=59 time=0\n",
      "note_on channel=0 note=78 velocity=59 time=0\n",
      "note_on channel=0 note=87 velocity=58 time=0\n",
      "note_on channel=0 note=80 velocity=58 time=0\n",
      "note_on channel=0 note=78 velocity=57 time=0\n",
      "note_on channel=0 note=75 velocity=56 time=0\n",
      "note_on channel=0 note=80 velocity=56 time=0\n",
      "note_on channel=0 note=78 velocity=56 time=0\n",
      "note_on channel=0 note=75 velocity=54 time=0\n",
      "note_on channel=0 note=68 velocity=54 time=0\n",
      "note_on channel=0 note=78 velocity=52 time=0\n",
      "note_on channel=0 note=75 velocity=52 time=0\n",
      "note_on channel=0 note=68 velocity=52 time=0\n",
      "note_on channel=0 note=66 velocity=51 time=0\n",
      "note_on channel=0 note=75 velocity=51 time=0\n",
      "note_on channel=0 note=68 velocity=50 time=0\n",
      "note_on channel=0 note=66 velocity=49 time=0\n",
      "note_on channel=0 note=63 velocity=49 time=0\n",
      "note_on channel=0 note=68 velocity=48 time=0\n",
      "note_on channel=0 note=66 velocity=48 time=0\n",
      "note_on channel=0 note=63 velocity=48 time=0\n",
      "note_on channel=0 note=56 velocity=46 time=0\n",
      "note_on channel=0 note=66 velocity=46 time=0\n",
      "note_on channel=0 note=63 velocity=44 time=0\n",
      "note_on channel=0 note=61 velocity=65 time=0\n",
      "note_on channel=0 note=73 velocity=59 time=0\n",
      "note_on channel=0 note=68 velocity=55 time=0\n",
      "note_on channel=0 note=73 velocity=65 time=0\n",
      "note_on channel=0 note=65 velocity=59 time=0\n",
      "note_on channel=0 note=80 velocity=58 time=0\n",
      "note_on channel=0 note=73 velocity=70 time=0\n",
      "note_on channel=0 note=80 velocity=66 time=0\n",
      "note_on channel=0 note=68 velocity=66 time=0\n",
      "note_on channel=0 note=73 velocity=70 time=0\n",
      "note_on channel=0 note=68 velocity=66 time=0\n",
      "note_on channel=0 note=73 velocity=62 time=0\n",
      "note_on channel=0 note=61 velocity=65 time=0\n",
      "note_on channel=0 note=73 velocity=63 time=0\n",
      "note_on channel=0 note=68 velocity=58 time=0\n",
      "note_on channel=0 note=73 velocity=65 time=0\n",
      "note_on channel=0 note=68 velocity=63 time=0\n",
      "note_on channel=0 note=80 velocity=57 time=0\n",
      "note_on channel=0 note=73 velocity=65 time=0\n",
      "note_on channel=0 note=80 velocity=59 time=0\n",
      "note_on channel=0 note=68 velocity=55 time=0\n",
      "note_on channel=0 note=73 velocity=65 time=0\n",
      "note_on channel=0 note=68 velocity=63 time=0\n",
      "note_on channel=0 note=73 velocity=58 time=0\n",
      "note_on channel=0 note=61 velocity=65 time=0\n",
      "note_on channel=0 note=73 velocity=58 time=0\n",
      "note_on channel=0 note=68 velocity=56 time=0\n",
      "note_on channel=0 note=73 velocity=65 time=0\n",
      "note_on channel=0 note=73 velocity=58 time=0\n",
      "note_on channel=0 note=85 velocity=55 time=0\n",
      "note_on channel=0 note=80 velocity=71 time=0\n",
      "note_on channel=0 note=85 velocity=64 time=0\n",
      "note_on channel=0 note=73 velocity=62 time=0\n",
      "note_on channel=0 note=73 velocity=71 time=0\n",
      "note_on channel=0 note=68 velocity=67 time=0\n",
      "note_on channel=0 note=73 velocity=62 time=0\n",
      "note_on channel=0 note=68 velocity=65 time=0\n",
      "note_on channel=0 note=80 velocity=59 time=0\n",
      "note_on channel=0 note=73 velocity=54 time=0\n",
      "note_on channel=0 note=80 velocity=65 time=0\n",
      "note_on channel=0 note=80 velocity=58 time=0\n",
      "note_on channel=0 note=92 velocity=59 time=0\n",
      "note_on channel=0 note=85 velocity=65 time=0\n",
      "note_on channel=0 note=92 velocity=57 time=0\n",
      "note_on channel=0 note=80 velocity=60 time=0\n",
      "note_on channel=0 note=80 velocity=65 time=0\n",
      "note_on channel=0 note=73 velocity=63 time=0\n",
      "note_on channel=0 note=80 velocity=56 time=0\n",
      "note_on channel=0 note=73 velocity=65 time=0\n",
      "note_on channel=0 note=75 velocity=62 time=0\n",
      "note_on channel=0 note=73 velocity=57 time=0\n",
      "note_on channel=0 note=87 velocity=64 time=0\n",
      "note_on channel=0 note=85 velocity=61 time=0\n",
      "note_on channel=0 note=99 velocity=61 time=0\n",
      "note_on channel=0 note=97 velocity=73 time=0\n",
      "note_on channel=0 note=99 velocity=65 time=0\n",
      "note_on channel=0 note=97 velocity=66 time=0\n",
      "note_on channel=0 note=85 velocity=80 time=0\n",
      "note_on channel=0 note=87 velocity=75 time=0\n",
      "note_on channel=0 note=85 velocity=70 time=0\n",
      "note_on channel=0 note=73 velocity=81 time=0\n",
      "note_on channel=0 note=75 velocity=77 time=0\n",
      "note_on channel=0 note=73 velocity=73 time=0\n",
      "note_on channel=0 note=87 velocity=78 time=0\n",
      "note_on channel=0 note=85 velocity=70 time=0\n",
      "note_on channel=0 note=99 velocity=74 time=0\n",
      "note_on channel=0 note=97 velocity=73 time=0\n",
      "note_on channel=0 note=99 velocity=70 time=0\n",
      "note_on channel=0 note=97 velocity=66 time=0\n",
      "note_on channel=0 note=85 velocity=70 time=0\n",
      "note_on channel=0 note=87 velocity=67 time=0\n",
      "note_on channel=0 note=85 velocity=66 time=0\n",
      "note_on channel=0 note=97 velocity=65 time=0\n",
      "note_on channel=0 note=99 velocity=65 time=0\n",
      "note_on channel=0 note=97 velocity=62 time=0\n",
      "note_on channel=0 note=85 velocity=66 time=0\n",
      "note_on channel=0 note=87 velocity=69 time=0\n",
      "note_on channel=0 note=85 velocity=65 time=0\n",
      "note_on channel=0 note=97 velocity=71 time=0\n",
      "note_on channel=0 note=99 velocity=68 time=0\n",
      "note_on channel=0 note=97 velocity=72 time=0\n",
      "note_on channel=0 note=85 velocity=75 time=0\n",
      "note_on channel=0 note=87 velocity=72 time=0\n",
      "note_on channel=0 note=85 velocity=68 time=0\n",
      "note_on channel=0 note=97 velocity=79 time=0\n",
      "note_on channel=0 note=99 velocity=75 time=0\n",
      "note_on channel=0 note=97 velocity=70 time=0\n",
      "note_on channel=0 note=85 velocity=74 time=0\n",
      "note_on channel=0 note=87 velocity=69 time=0\n",
      "note_on channel=0 note=85 velocity=68 time=0\n",
      "note_on channel=0 note=97 velocity=71 time=0\n",
      "note_on channel=0 note=99 velocity=67 time=0\n",
      "note_on channel=0 note=97 velocity=64 time=0\n",
      "note_on channel=0 note=85 velocity=67 time=0\n",
      "note_on channel=0 note=87 velocity=66 time=0\n",
      "note_on channel=0 note=85 velocity=65 time=0\n",
      "note_on channel=0 note=90 velocity=96 time=1\n",
      "note_on channel=0 note=94 velocity=70 time=79\n",
      "note_on channel=0 note=85 velocity=70 time=0\n",
      "note_on channel=0 note=90 velocity=92 time=0\n",
      "note_on channel=0 note=87 velocity=74 time=0\n",
      "note_on channel=0 note=90 velocity=70 time=0\n",
      "note_on channel=0 note=85 velocity=97 time=0\n",
      "note_on channel=0 note=90 velocity=74 time=0\n",
      "note_on channel=0 note=82 velocity=71 time=0\n",
      "note_on channel=0 note=85 velocity=84 time=0\n",
      "note_on channel=0 note=78 velocity=73 time=0\n",
      "note_on channel=0 note=82 velocity=70 time=0\n",
      "note_on channel=0 note=78 velocity=74 time=0\n",
      "note_on channel=0 note=82 velocity=69 time=0\n",
      "note_on channel=0 note=73 velocity=66 time=0\n",
      "note_on channel=0 note=78 velocity=69 time=0\n",
      "note_on channel=0 note=75 velocity=66 time=0\n",
      "note_on channel=0 note=78 velocity=63 time=0\n",
      "note_on channel=0 note=73 velocity=74 time=0\n",
      "note_on channel=0 note=78 velocity=68 time=0\n",
      "note_on channel=0 note=70 velocity=63 time=0\n",
      "note_on channel=0 note=73 velocity=74 time=0\n",
      "note_on channel=0 note=66 velocity=64 time=0\n",
      "note_on channel=0 note=70 velocity=61 time=0\n",
      "note_on channel=0 note=61 velocity=74 time=0\n",
      "note_on channel=0 note=73 velocity=72 time=0\n",
      "note_on channel=0 note=68 velocity=67 time=0\n",
      "note_on channel=0 note=73 velocity=75 time=0\n",
      "note_on channel=0 note=68 velocity=66 time=0\n",
      "note_on channel=0 note=80 velocity=67 time=0\n",
      "note_on channel=0 note=68 velocity=72 time=0\n",
      "note_on channel=0 note=80 velocity=73 time=0\n",
      "note_on channel=0 note=75 velocity=71 time=0\n",
      "note_on channel=0 note=80 velocity=78 time=0\n",
      "note_on channel=0 note=75 velocity=76 time=0\n",
      "note_on channel=0 note=87 velocity=72 time=0\n",
      "note_on channel=0 note=75 velocity=82 time=0\n",
      "note_on channel=0 note=87 velocity=77 time=0\n",
      "note_on channel=0 note=80 velocity=72 time=0\n",
      "note_on channel=0 note=87 velocity=86 time=0\n",
      "note_on channel=0 note=80 velocity=74 time=0\n",
      "note_on channel=0 note=92 velocity=75 time=0\n",
      "note_on channel=0 note=80 velocity=88 time=0\n",
      "note_on channel=0 note=92 velocity=81 time=0\n",
      "note_on channel=0 note=85 velocity=77 time=0\n",
      "note_on channel=0 note=92 velocity=89 time=0\n",
      "note_on channel=0 note=85 velocity=85 time=0\n",
      "note_on channel=0 note=97 velocity=83 time=0\n",
      "note_on channel=0 note=90 velocity=97 time=0\n",
      "note_on channel=0 note=94 velocity=74 time=0\n",
      "note_on channel=0 note=85 velocity=71 time=0\n",
      "note_on channel=0 note=90 velocity=94 time=0\n",
      "note_on channel=0 note=87 velocity=75 time=0\n",
      "note_on channel=0 note=90 velocity=73 time=0\n",
      "note_on channel=0 note=85 velocity=95 time=0\n",
      "note_on channel=0 note=90 velocity=76 time=0\n",
      "note_on channel=0 note=82 velocity=73 time=0\n",
      "note_on channel=0 note=85 velocity=86 time=0\n",
      "note_on channel=0 note=78 velocity=77 time=0\n",
      "note_on channel=0 note=82 velocity=73 time=0\n",
      "note_on channel=0 note=78 velocity=74 time=0\n",
      "note_on channel=0 note=82 velocity=66 time=0\n",
      "note_on channel=0 note=73 velocity=64 time=0\n",
      "note_on channel=0 note=78 velocity=70 time=0\n",
      "note_on channel=0 note=75 velocity=67 time=0\n",
      "note_on channel=0 note=78 velocity=67 time=0\n",
      "note_on channel=0 note=73 velocity=74 time=0\n",
      "note_on channel=0 note=78 velocity=62 time=0\n",
      "note_on channel=0 note=70 velocity=55 time=0\n",
      "note_on channel=0 note=73 velocity=74 time=0\n",
      "note_on channel=0 note=66 velocity=64 time=0\n",
      "note_on channel=0 note=70 velocity=60 time=0\n",
      "note_on channel=0 note=63 velocity=74 time=0\n",
      "note_on channel=0 note=75 velocity=71 time=0\n",
      "note_on channel=0 note=68 velocity=67 time=0\n",
      "note_on channel=0 note=75 velocity=74 time=0\n",
      "note_on channel=0 note=68 velocity=72 time=0\n",
      "note_on channel=0 note=80 velocity=67 time=0\n",
      "note_on channel=0 note=70 velocity=74 time=0\n",
      "note_on channel=0 note=82 velocity=85 time=0\n",
      "note_on channel=0 note=70 velocity=72 time=0\n",
      "note_on channel=0 note=82 velocity=74 time=0\n",
      "note_on channel=0 note=70 velocity=70 time=0\n",
      "note_on channel=0 note=82 velocity=66 time=0\n",
      "note_on channel=0 note=75 velocity=74 time=0\n",
      "note_on channel=0 note=87 velocity=70 time=0\n",
      "note_on channel=0 note=80 velocity=70 time=0\n",
      "note_on channel=0 note=87 velocity=71 time=0\n",
      "note_on channel=0 note=80 velocity=69 time=0\n",
      "note_on channel=0 note=92 velocity=69 time=0\n",
      "note_on channel=0 note=82 velocity=72 time=0\n",
      "note_on channel=0 note=94 velocity=79 time=0\n",
      "note_on channel=0 note=82 velocity=69 time=0\n",
      "note_on channel=0 note=94 velocity=72 time=0\n",
      "note_on channel=0 note=82 velocity=72 time=0\n",
      "note_on channel=0 note=94 velocity=70 time=0\n",
      "note_on channel=0 note=82 velocity=74 time=0\n",
      "note_on channel=0 note=94 velocity=72 time=0\n",
      "note_on channel=0 note=87 velocity=72 time=0\n",
      "note_on channel=0 note=94 velocity=74 time=0\n",
      "note_on channel=0 note=80 velocity=69 time=0\n",
      "note_on channel=0 note=92 velocity=67 time=0\n",
      "note_on channel=0 note=80 velocity=75 time=0\n",
      "note_on channel=0 note=92 velocity=73 time=0\n",
      "note_on channel=0 note=85 velocity=70 time=0\n",
      "note_on channel=0 note=92 velocity=77 time=0\n",
      "note_on channel=0 note=78 velocity=69 time=0\n",
      "note_on channel=0 note=90 velocity=70 time=0\n",
      "note_on channel=0 note=73 velocity=77 time=0\n",
      "note_on channel=0 note=85 velocity=72 time=0\n",
      "note_on channel=0 note=80 velocity=69 time=0\n",
      "note_on channel=0 note=85 velocity=78 time=0\n",
      "note_on channel=0 note=80 velocity=72 time=0\n",
      "note_on channel=0 note=92 velocity=75 time=0\n",
      "note_on channel=0 note=78 velocity=78 time=0\n",
      "note_on channel=0 note=90 velocity=74 time=0\n",
      "note_on channel=0 note=85 velocity=72 time=0\n",
      "note_on channel=0 note=90 velocity=80 time=0\n",
      "note_on channel=0 note=85 velocity=74 time=0\n",
      "note_on channel=0 note=97 velocity=78 time=0\n",
      "note_on channel=0 note=82 velocity=80 time=0\n",
      "note_on channel=0 note=94 velocity=74 time=0\n",
      "note_on channel=0 note=87 velocity=71 time=0\n",
      "note_on channel=0 note=94 velocity=81 time=0\n",
      "note_on channel=0 note=80 velocity=79 time=0\n",
      "note_on channel=0 note=92 velocity=76 time=0\n",
      "note_on channel=0 note=80 velocity=82 time=0\n",
      "note_on channel=0 note=92 velocity=76 time=0\n",
      "note_on channel=0 note=85 velocity=73 time=0\n",
      "note_on channel=0 note=92 velocity=82 time=0\n",
      "note_on channel=0 note=78 velocity=74 time=0\n",
      "note_on channel=0 note=90 velocity=70 time=0\n",
      "note_on channel=0 note=73 velocity=83 time=0\n",
      "note_on channel=0 note=85 velocity=74 time=0\n",
      "note_on channel=0 note=80 velocity=71 time=0\n",
      "note_on channel=0 note=85 velocity=83 time=0\n",
      "note_on channel=0 note=80 velocity=76 time=0\n",
      "note_on channel=0 note=92 velocity=82 time=0\n",
      "note_on channel=0 note=78 velocity=86 time=0\n",
      "note_on channel=0 note=90 velocity=76 time=0\n",
      "note_on channel=0 note=85 velocity=73 time=0\n",
      "note_on channel=0 note=90 velocity=87 time=0\n",
      "note_on channel=0 note=85 velocity=79 time=0\n",
      "note_on channel=0 note=97 velocity=75 time=0\n",
      "note_on channel=0 note=82 velocity=83 time=0\n",
      "note_on channel=0 note=94 velocity=74 time=0\n",
      "note_on channel=0 note=87 velocity=75 time=0\n",
      "note_on channel=0 note=94 velocity=86 time=0\n",
      "note_on channel=0 note=80 velocity=77 time=0\n",
      "note_on channel=0 note=92 velocity=74 time=0\n",
      "note_on channel=0 note=82 velocity=87 time=0\n",
      "note_on channel=0 note=94 velocity=80 time=0\n",
      "note_on channel=0 note=87 velocity=74 time=0\n",
      "note_on channel=0 note=94 velocity=84 time=0\n",
      "note_on channel=0 note=80 velocity=78 time=0\n",
      "note_on channel=0 note=92 velocity=74 time=0\n",
      "note_on channel=0 note=82 velocity=92 time=0\n",
      "note_on channel=0 note=94 velocity=85 time=0\n",
      "note_on channel=0 note=87 velocity=81 time=0\n",
      "note_on channel=0 note=94 velocity=93 time=0\n",
      "note_on channel=0 note=80 velocity=85 time=0\n",
      "note_on channel=0 note=92 velocity=90 time=0\n",
      "note_on channel=0 note=82 velocity=94 time=0\n",
      "note_on channel=0 note=94 velocity=86 time=0\n",
      "note_on channel=0 note=87 velocity=83 time=0\n",
      "note_on channel=0 note=94 velocity=97 time=0\n",
      "note_on channel=0 note=80 velocity=80 time=0\n",
      "note_on channel=0 note=92 velocity=88 time=0\n",
      "note_on channel=0 note=85 velocity=98 time=0\n",
      "note_on channel=0 note=94 velocity=90 time=0\n",
      "note_on channel=0 note=80 velocity=87 time=0\n",
      "note_on channel=0 note=92 velocity=100 time=0\n",
      "note_on channel=0 note=85 velocity=90 time=0\n",
      "note_on channel=0 note=94 velocity=92 time=0\n",
      "note_on channel=0 note=80 velocity=103 time=0\n",
      "note_on channel=0 note=92 velocity=93 time=0\n",
      "note_on channel=0 note=85 velocity=86 time=0\n",
      "note_on channel=0 note=94 velocity=94 time=0\n",
      "note_on channel=0 note=80 velocity=90 time=0\n",
      "note_on channel=0 note=92 velocity=86 time=0\n",
      "note_on channel=0 note=85 velocity=96 time=0\n",
      "note_on channel=0 note=94 velocity=91 time=0\n",
      "note_on channel=0 note=80 velocity=85 time=0\n",
      "note_on channel=0 note=92 velocity=89 time=0\n",
      "note_on channel=0 note=85 velocity=82 time=0\n",
      "note_on channel=0 note=94 velocity=75 time=0\n",
      "note_on channel=0 note=80 velocity=85 time=0\n",
      "note_on channel=0 note=92 velocity=77 time=0\n",
      "note_on channel=0 note=85 velocity=71 time=0\n",
      "note_on channel=0 note=94 velocity=75 time=0\n",
      "note_on channel=0 note=80 velocity=68 time=0\n",
      "note_on channel=0 note=92 velocity=64 time=0\n",
      "note_on channel=0 note=99 velocity=57 time=0\n",
      "note_on channel=0 note=97 velocity=57 time=40\n",
      "note_on channel=0 note=94 velocity=52 time=0\n",
      "note_on channel=0 note=92 velocity=57 time=0\n",
      "note_on channel=0 note=90 velocity=57 time=0\n",
      "note_on channel=0 note=87 velocity=54 time=0\n",
      "note_on channel=0 note=85 velocity=57 time=0\n",
      "note_on channel=0 note=82 velocity=57 time=0\n",
      "note_on channel=0 note=80 velocity=53 time=0\n",
      "note_on channel=0 note=78 velocity=57 time=0\n",
      "note_on channel=0 note=75 velocity=57 time=0\n",
      "note_on channel=0 note=73 velocity=54 time=0\n",
      "note_on channel=0 note=68 velocity=65 time=0\n",
      "note_on channel=0 note=70 velocity=69 time=0\n",
      "note_on channel=0 note=68 velocity=64 time=0\n",
      "note_on channel=0 note=66 velocity=71 time=0\n",
      "note_on channel=0 note=92 velocity=63 time=0\n",
      "note_on channel=0 note=94 velocity=53 time=0\n",
      "note_on channel=0 note=92 velocity=57 time=0\n",
      "note_on channel=0 note=85 velocity=59 time=0\n",
      "note_on channel=0 note=97 velocity=59 time=0\n",
      "note_on channel=0 note=85 velocity=54 time=0\n",
      "note_on channel=0 note=85 velocity=63 time=0\n",
      "note_on channel=0 note=87 velocity=63 time=0\n",
      "note_on channel=0 note=85 velocity=63 time=0\n",
      "note_on channel=0 note=78 velocity=58 time=0\n",
      "note_on channel=0 note=90 velocity=55 time=0\n",
      "note_on channel=0 note=78 velocity=58 time=0\n",
      "note_on channel=0 note=80 velocity=63 time=0\n",
      "note_on channel=0 note=82 velocity=54 time=0\n",
      "note_on channel=0 note=80 velocity=56 time=0\n",
      "note_on channel=0 note=73 velocity=78 time=0\n",
      "note_on channel=0 note=78 velocity=62 time=0\n",
      "note_on channel=0 note=80 velocity=57 time=0\n",
      "note_on channel=0 note=82 velocity=66 time=0\n",
      "note_on channel=0 note=80 velocity=64 time=0\n",
      "note_on channel=0 note=78 velocity=57 time=0\n",
      "note_on channel=0 note=73 velocity=62 time=0\n",
      "note_on channel=0 note=80 velocity=64 time=0\n",
      "note_on channel=0 note=85 velocity=61 time=0\n",
      "note_on channel=0 note=87 velocity=67 time=0\n",
      "note_on channel=0 note=85 velocity=65 time=0\n",
      "note_on channel=0 note=80 velocity=59 time=0\n",
      "note_on channel=0 note=78 velocity=66 time=0\n",
      "note_on channel=0 note=85 velocity=63 time=0\n",
      "note_on channel=0 note=90 velocity=59 time=0\n",
      "note_on channel=0 note=92 velocity=64 time=0\n",
      "note_on channel=0 note=90 velocity=64 time=0\n",
      "note_on channel=0 note=87 velocity=57 time=0\n",
      "note_on channel=0 note=85 velocity=70 time=0\n",
      "note_on channel=0 note=92 velocity=67 time=0\n",
      "note_on channel=0 note=97 velocity=65 time=0\n",
      "note_on channel=0 note=99 velocity=74 time=0\n",
      "note_on channel=0 note=97 velocity=67 time=0\n",
      "note_on channel=0 note=92 velocity=62 time=0\n",
      "note_on channel=0 note=90 velocity=62 time=0\n",
      "note_on channel=0 note=92 velocity=57 time=0\n",
      "note_on channel=0 note=90 velocity=56 time=0\n",
      "note_on channel=0 note=85 velocity=63 time=0\n",
      "note_on channel=0 note=97 velocity=59 time=0\n",
      "note_on channel=0 note=85 velocity=59 time=0\n",
      "note_on channel=0 note=85 velocity=63 time=0\n",
      "note_on channel=0 note=87 velocity=60 time=0\n",
      "note_on channel=0 note=85 velocity=57 time=0\n",
      "note_on channel=0 note=80 velocity=59 time=0\n",
      "note_on channel=0 note=92 velocity=59 time=0\n",
      "note_on channel=0 note=80 velocity=59 time=0\n",
      "note_on channel=0 note=80 velocity=63 time=0\n",
      "note_on channel=0 note=82 velocity=59 time=0\n",
      "note_on channel=0 note=80 velocity=55 time=0\n",
      "note_on channel=0 note=78 velocity=58 time=0\n",
      "note_on channel=0 note=90 velocity=58 time=0\n",
      "note_on channel=0 note=78 velocity=55 time=0\n",
      "note_on channel=0 note=73 velocity=63 time=0\n",
      "note_on channel=0 note=78 velocity=64 time=0\n",
      "note_on channel=0 note=80 velocity=62 time=0\n",
      "note_on channel=0 note=82 velocity=70 time=0\n",
      "note_on channel=0 note=80 velocity=64 time=0\n",
      "note_on channel=0 note=78 velocity=61 time=0\n",
      "note_on channel=0 note=73 velocity=69 time=0\n",
      "note_on channel=0 note=80 velocity=66 time=0\n",
      "note_on channel=0 note=85 velocity=64 time=0\n",
      "note_on channel=0 note=87 velocity=73 time=0\n",
      "note_on channel=0 note=85 velocity=67 time=0\n",
      "note_on channel=0 note=80 velocity=65 time=0\n",
      "note_on channel=0 note=78 velocity=74 time=0\n",
      "note_on channel=0 note=85 velocity=71 time=0\n",
      "note_on channel=0 note=90 velocity=70 time=0\n",
      "note_on channel=0 note=92 velocity=76 time=0\n",
      "note_on channel=0 note=90 velocity=70 time=0\n",
      "note_on channel=0 note=85 velocity=70 time=0\n",
      "note_on channel=0 note=80 velocity=79 time=0\n",
      "note_on channel=0 note=85 velocity=81 time=0\n",
      "note_on channel=0 note=92 velocity=78 time=0\n",
      "note_on channel=0 note=94 velocity=86 time=0\n",
      "note_on channel=0 note=92 velocity=78 time=0\n",
      "note_on channel=0 note=85 velocity=74 time=0\n",
      "note_on channel=0 note=94 velocity=87 time=0\n",
      "note_on channel=0 note=85 velocity=77 time=0\n",
      "note_on channel=0 note=92 velocity=71 time=0\n",
      "note_on channel=0 note=82 velocity=83 time=0\n",
      "note_on channel=0 note=92 velocity=78 time=0\n",
      "note_on channel=0 note=85 velocity=70 time=0\n",
      "note_on channel=0 note=90 velocity=83 time=0\n",
      "note_on channel=0 note=82 velocity=76 time=0\n",
      "note_on channel=0 note=87 velocity=72 time=0\n",
      "note_on channel=0 note=80 velocity=83 time=0\n",
      "note_on channel=0 note=85 velocity=76 time=0\n",
      "note_on channel=0 note=73 velocity=72 time=0\n",
      "note_on channel=0 note=82 velocity=83 time=0\n",
      "note_on channel=0 note=73 velocity=78 time=0\n",
      "note_on channel=0 note=80 velocity=74 time=0\n",
      "note_on channel=0 note=70 velocity=83 time=0\n",
      "note_on channel=0 note=80 velocity=72 time=0\n",
      "note_on channel=0 note=73 velocity=72 time=0\n",
      "note_on channel=0 note=78 velocity=83 time=0\n",
      "note_on channel=0 note=70 velocity=78 time=0\n",
      "note_on channel=0 note=75 velocity=74 time=0\n",
      "note_on channel=0 note=68 velocity=83 time=0\n",
      "note_on channel=0 note=73 velocity=77 time=0\n",
      "note_on channel=0 note=61 velocity=76 time=0\n",
      "note_on channel=0 note=70 velocity=87 time=0\n",
      "note_on channel=0 note=61 velocity=82 time=0\n",
      "note_on channel=0 note=68 velocity=77 time=0\n",
      "note_on channel=0 note=58 velocity=88 time=0\n",
      "note_on channel=0 note=68 velocity=77 time=0\n",
      "note_on channel=0 note=61 velocity=81 time=0\n",
      "note_on channel=0 note=66 velocity=93 time=0\n",
      "note_on channel=0 note=58 velocity=87 time=0\n",
      "note_on channel=0 note=63 velocity=86 time=0\n",
      "note_on channel=0 note=56 velocity=97 time=0\n",
      "note_on channel=0 note=61 velocity=91 time=0\n",
      "note_on channel=0 note=49 velocity=88 time=0\n",
      "note_on channel=0 note=58 velocity=101 time=0\n",
      "note_on channel=0 note=54 velocity=92 time=0\n",
      "note_on channel=0 note=63 velocity=87 time=0\n",
      "note_on channel=0 note=49 velocity=101 time=0\n",
      "note_on channel=0 note=61 velocity=92 time=0\n",
      "note_on channel=0 note=56 velocity=86 time=0\n",
      "note_on channel=0 note=58 velocity=101 time=0\n",
      "note_on channel=0 note=54 velocity=93 time=0\n",
      "note_on channel=0 note=63 velocity=89 time=0\n",
      "note_on channel=0 note=49 velocity=101 time=0\n",
      "note_on channel=0 note=61 velocity=93 time=0\n",
      "note_on channel=0 note=56 velocity=89 time=0\n",
      "note_on channel=0 note=58 velocity=101 time=0\n",
      "note_on channel=0 note=54 velocity=48 time=0\n",
      "note_on channel=0 note=58 velocity=60 time=0\n",
      "note_on channel=0 note=56 velocity=59 time=0\n",
      "note_on channel=0 note=54 velocity=54 time=0\n",
      "note_on channel=0 note=66 velocity=63 time=0\n",
      "note_on channel=0 note=63 velocity=50 time=0\n",
      "note_on channel=0 note=61 velocity=60 time=0\n",
      "note_on channel=0 note=58 velocity=56 time=0\n",
      "note_on channel=0 note=70 velocity=64 time=0\n",
      "note_on channel=0 note=66 velocity=50 time=0\n",
      "note_on channel=0 note=63 velocity=62 time=0\n",
      "note_on channel=0 note=61 velocity=58 time=0\n",
      "note_on channel=0 note=70 velocity=52 time=0\n",
      "note_on channel=0 note=73 velocity=66 time=0\n",
      "note_on channel=0 note=68 velocity=64 time=0\n",
      "note_on channel=0 note=66 velocity=58 time=0\n",
      "note_on channel=0 note=78 velocity=69 time=0\n",
      "note_on channel=0 note=75 velocity=55 time=0\n",
      "note_on channel=0 note=73 velocity=59 time=0\n",
      "note_on channel=0 note=70 velocity=59 time=0\n",
      "note_on channel=0 note=82 velocity=70 time=0\n",
      "note_on channel=0 note=78 velocity=55 time=0\n",
      "note_on channel=0 note=75 velocity=65 time=0\n",
      "note_on channel=0 note=73 velocity=64 time=0\n",
      "note_on channel=0 note=85 velocity=71 time=0\n",
      "note_on channel=0 note=82 velocity=56 time=0\n",
      "note_on channel=0 note=80 velocity=67 time=0\n",
      "note_on channel=0 note=78 velocity=67 time=0\n",
      "note_on channel=0 note=90 velocity=73 time=0\n",
      "note_on channel=0 note=87 velocity=58 time=0\n",
      "note_on channel=0 note=85 velocity=67 time=0\n",
      "note_on channel=0 note=82 velocity=65 time=0\n",
      "note_on channel=0 note=94 velocity=75 time=0\n",
      "note_on channel=0 note=90 velocity=59 time=0\n",
      "note_on channel=0 note=87 velocity=69 time=0\n",
      "note_on channel=0 note=85 velocity=66 time=0\n",
      "note_on channel=0 note=90 velocity=78 time=0\n",
      "note_on channel=0 note=87 velocity=62 time=0\n",
      "note_on channel=0 note=85 velocity=70 time=0\n",
      "note_on channel=0 note=82 velocity=69 time=0\n",
      "note_on channel=0 note=94 velocity=78 time=0\n",
      "note_on channel=0 note=90 velocity=62 time=0\n",
      "note_on channel=0 note=87 velocity=71 time=0\n",
      "note_on channel=0 note=85 velocity=70 time=0\n",
      "note_on channel=0 note=90 velocity=81 time=0\n",
      "note_on channel=0 note=87 velocity=64 time=0\n",
      "note_on channel=0 note=85 velocity=74 time=0\n",
      "note_on channel=0 note=82 velocity=73 time=0\n",
      "note_on channel=0 note=94 velocity=81 time=0\n",
      "note_on channel=0 note=90 velocity=64 time=0\n",
      "note_on channel=0 note=87 velocity=75 time=0\n",
      "note_on channel=0 note=85 velocity=74 time=0\n",
      "note_on channel=0 note=90 velocity=82 time=0\n",
      "note_on channel=0 note=87 velocity=65 time=0\n",
      "note_on channel=0 note=85 velocity=75 time=0\n",
      "note_on channel=0 note=82 velocity=75 time=0\n",
      "note_on channel=0 note=94 velocity=85 time=0\n",
      "note_on channel=0 note=90 velocity=67 time=0\n",
      "note_on channel=0 note=87 velocity=77 time=0\n",
      "note_on channel=0 note=85 velocity=75 time=0\n",
      "note_on channel=0 note=82 velocity=89 time=0\n",
      "note_on channel=0 note=90 velocity=89 time=0\n",
      "note_on channel=0 note=78 velocity=94 time=80\n",
      "note_on channel=0 note=90 velocity=94 time=0\n",
      "note_on channel=0 note=87 velocity=94 time=0\n",
      "note_on channel=0 note=75 velocity=94 time=0\n",
      "note_on channel=0 note=85 velocity=95 time=20\n",
      "note_on channel=0 note=73 velocity=95 time=0\n",
      "note_on channel=0 note=82 velocity=96 time=20\n",
      "note_on channel=0 note=70 velocity=96 time=0\n",
      "note_on channel=0 note=80 velocity=97 time=20\n",
      "note_on channel=0 note=68 velocity=97 time=0\n",
      "note_on channel=0 note=78 velocity=98 time=20\n",
      "note_on channel=0 note=66 velocity=98 time=0\n",
      "note_on channel=0 note=75 velocity=98 time=20\n",
      "note_on channel=0 note=63 velocity=98 time=0\n",
      "note_on channel=0 note=73 velocity=100 time=20\n",
      "note_on channel=0 note=61 velocity=100 time=0\n",
      "note_on channel=0 note=70 velocity=101 time=20\n",
      "note_on channel=0 note=58 velocity=101 time=0\n",
      "note_on channel=0 note=68 velocity=103 time=20\n",
      "note_on channel=0 note=56 velocity=103 time=0\n",
      "note_on channel=0 note=54 velocity=111 time=20\n",
      "note_on channel=0 note=66 velocity=111 time=0\n",
      "note_on channel=0 note=94 velocity=118 time=360\n",
      "note_on channel=0 note=90 velocity=108 time=0\n",
      "note_on channel=0 note=85 velocity=108 time=0\n",
      "note_on channel=0 note=82 velocity=108 time=0\n",
      "note_on channel=0 note=54 velocity=112 time=0\n",
      "2\n",
      "note_on channel=0 note=54 velocity=75 time=1\n",
      "note_on channel=0 note=61 velocity=75 time=0\n",
      "note_on channel=0 note=58 velocity=75 time=0\n",
      "note_on channel=0 note=66 velocity=89 time=0\n",
      "note_on channel=0 note=54 velocity=71 time=149\n",
      "note_on channel=0 note=63 velocity=71 time=0\n",
      "note_on channel=0 note=59 velocity=71 time=0\n",
      "note_on channel=0 note=66 velocity=84 time=0\n",
      "note_on channel=0 note=54 velocity=75 time=150\n",
      "note_on channel=0 note=61 velocity=75 time=0\n",
      "note_on channel=0 note=58 velocity=75 time=0\n",
      "note_on channel=0 note=66 velocity=89 time=0\n",
      "note_on channel=0 note=42 velocity=48 time=390\n",
      "note_on channel=0 note=54 velocity=57 time=0\n",
      "note_on channel=0 note=66 velocity=55 time=150\n",
      "note_on channel=0 note=63 velocity=46 time=0\n",
      "note_on channel=0 note=59 velocity=46 time=0\n",
      "note_on channel=0 note=66 velocity=57 time=150\n",
      "note_on channel=0 note=61 velocity=48 time=0\n",
      "note_on channel=0 note=58 velocity=48 time=0\n",
      "note_on channel=0 note=37 velocity=47 time=390\n",
      "note_on channel=0 note=49 velocity=56 time=0\n",
      "note_on channel=0 note=65 velocity=60 time=150\n",
      "note_on channel=0 note=61 velocity=50 time=0\n",
      "note_on channel=0 note=56 velocity=50 time=0\n",
      "note_on channel=0 note=63 velocity=63 time=150\n",
      "note_on channel=0 note=59 velocity=53 time=0\n",
      "note_on channel=0 note=56 velocity=53 time=0\n",
      "note_on channel=0 note=44 velocity=68 time=150\n",
      "note_on channel=0 note=49 velocity=70 time=0\n",
      "note_on channel=0 note=63 velocity=73 time=183\n",
      "note_on channel=0 note=59 velocity=62 time=0\n",
      "note_on channel=0 note=56 velocity=62 time=0\n",
      "note_on channel=0 note=61 velocity=78 time=0\n",
      "note_on channel=0 note=59 velocity=64 time=0\n",
      "note_on channel=0 note=56 velocity=64 time=0\n",
      "note_on channel=0 note=58 velocity=73 time=0\n",
      "note_on channel=0 note=66 velocity=87 time=0\n",
      "note_on channel=0 note=61 velocity=73 time=0\n",
      "note_on channel=0 note=54 velocity=73 time=0\n",
      "note_on channel=0 note=66 velocity=82 time=150\n",
      "note_on channel=0 note=63 velocity=69 time=0\n",
      "note_on channel=0 note=59 velocity=69 time=0\n",
      "note_on channel=0 note=54 velocity=69 time=0\n",
      "note_on channel=0 note=66 velocity=87 time=150\n",
      "note_on channel=0 note=61 velocity=73 time=0\n",
      "note_on channel=0 note=58 velocity=73 time=0\n",
      "note_on channel=0 note=54 velocity=73 time=0\n",
      "note_on channel=0 note=42 velocity=47 time=390\n",
      "note_on channel=0 note=54 velocity=56 time=0\n",
      "note_on channel=0 note=66 velocity=48 time=150\n",
      "note_on channel=0 note=63 velocity=40 time=0\n",
      "note_on channel=0 note=59 velocity=40 time=0\n",
      "note_on channel=0 note=66 velocity=57 time=150\n",
      "note_on channel=0 note=61 velocity=48 time=0\n",
      "note_on channel=0 note=58 velocity=48 time=0\n",
      "note_on channel=0 note=47 velocity=66 time=390\n",
      "note_on channel=0 note=63 velocity=71 time=0\n",
      "note_on channel=0 note=56 velocity=60 time=0\n",
      "note_on channel=0 note=47 velocity=64 time=0\n",
      "note_on channel=0 note=46 velocity=57 time=0\n",
      "note_on channel=0 note=53 velocity=59 time=15\n",
      "note_on channel=0 note=62 velocity=77 time=15\n",
      "note_on channel=0 note=58 velocity=56 time=0\n",
      "note_on channel=0 note=65 velocity=56 time=15\n",
      "note_on channel=0 note=74 velocity=71 time=15\n",
      "note_on channel=0 note=66 velocity=86 time=1\n",
      "note_on channel=0 note=61 velocity=72 time=0\n",
      "note_on channel=0 note=58 velocity=72 time=0\n",
      "note_on channel=0 note=54 velocity=72 time=0\n",
      "note_on channel=0 note=66 velocity=77 time=149\n",
      "note_on channel=0 note=63 velocity=64 time=0\n",
      "note_on channel=0 note=59 velocity=64 time=0\n",
      "note_on channel=0 note=54 velocity=64 time=0\n",
      "note_on channel=0 note=66 velocity=86 time=150\n",
      "note_on channel=0 note=61 velocity=72 time=0\n",
      "note_on channel=0 note=58 velocity=72 time=0\n",
      "note_on channel=0 note=54 velocity=72 time=0\n",
      "note_on channel=0 note=54 velocity=56 time=390\n",
      "note_on channel=0 note=42 velocity=56 time=0\n",
      "note_on channel=0 note=66 velocity=48 time=150\n",
      "note_on channel=0 note=63 velocity=40 time=0\n",
      "note_on channel=0 note=59 velocity=40 time=0\n",
      "note_on channel=0 note=66 velocity=56 time=150\n",
      "note_on channel=0 note=61 velocity=47 time=0\n",
      "note_on channel=0 note=58 velocity=47 time=0\n",
      "note_on channel=0 note=37 velocity=51 time=390\n",
      "note_on channel=0 note=49 velocity=61 time=0\n",
      "note_on channel=0 note=65 velocity=61 time=150\n",
      "note_on channel=0 note=61 velocity=51 time=0\n",
      "note_on channel=0 note=56 velocity=51 time=0\n",
      "note_on channel=0 note=63 velocity=62 time=150\n",
      "note_on channel=0 note=59 velocity=52 time=0\n",
      "note_on channel=0 note=56 velocity=52 time=0\n",
      "note_on channel=0 note=44 velocity=66 time=150\n",
      "note_on channel=0 note=49 velocity=70 time=150\n",
      "note_on channel=0 note=63 velocity=73 time=183\n",
      "note_on channel=0 note=59 velocity=62 time=0\n",
      "note_on channel=0 note=56 velocity=62 time=0\n",
      "note_on channel=0 note=61 velocity=78 time=0\n",
      "note_on channel=0 note=59 velocity=64 time=0\n",
      "note_on channel=0 note=56 velocity=64 time=0\n",
      "note_on channel=0 note=66 velocity=87 time=0\n",
      "note_on channel=0 note=58 velocity=73 time=0\n",
      "note_on channel=0 note=61 velocity=73 time=0\n",
      "note_on channel=0 note=54 velocity=73 time=0\n",
      "note_on channel=0 note=54 velocity=69 time=150\n",
      "note_on channel=0 note=63 velocity=69 time=0\n",
      "note_on channel=0 note=59 velocity=69 time=0\n",
      "note_on channel=0 note=66 velocity=81 time=0\n",
      "note_on channel=0 note=54 velocity=73 time=150\n",
      "note_on channel=0 note=61 velocity=73 time=0\n",
      "note_on channel=0 note=58 velocity=73 time=0\n",
      "note_on channel=0 note=66 velocity=87 time=0\n",
      "note_on channel=0 note=42 velocity=47 time=390\n",
      "note_on channel=0 note=54 velocity=56 time=0\n",
      "note_on channel=0 note=59 velocity=42 time=150\n",
      "note_on channel=0 note=66 velocity=50 time=0\n",
      "note_on channel=0 note=63 velocity=42 time=0\n",
      "note_on channel=0 note=66 velocity=56 time=150\n",
      "note_on channel=0 note=61 velocity=47 time=0\n",
      "note_on channel=0 note=58 velocity=47 time=0\n",
      "note_on channel=0 note=48 velocity=62 time=390\n",
      "note_on channel=0 note=66 velocity=68 time=120\n",
      "note_on channel=0 note=56 velocity=56 time=0\n",
      "note_on channel=0 note=44 velocity=64 time=0\n",
      "note_on channel=0 note=49 velocity=78 time=120\n",
      "note_on channel=0 note=65 velocity=71 time=120\n",
      "note_on channel=0 note=56 velocity=60 time=0\n",
      "note_on channel=0 note=60 velocity=52 time=0\n",
      "note_on channel=0 note=68 velocity=62 time=0\n",
      "note_on channel=0 note=66 velocity=52 time=0\n",
      "note_on channel=0 note=56 velocity=50 time=0\n",
      "note_on channel=0 note=68 velocity=60 time=0\n",
      "note_on channel=0 note=66 velocity=50 time=0\n",
      "note_on channel=0 note=61 velocity=56 time=0\n",
      "note_on channel=0 note=65 velocity=56 time=0\n",
      "note_on channel=0 note=70 velocity=68 time=0\n",
      "note_on channel=0 note=56 velocity=48 time=0\n",
      "note_on channel=0 note=65 velocity=48 time=0\n",
      "note_on channel=0 note=68 velocity=59 time=0\n",
      "note_on channel=0 note=60 velocity=52 time=0\n",
      "note_on channel=0 note=66 velocity=52 time=0\n",
      "note_on channel=0 note=70 velocity=62 time=0\n",
      "note_on channel=0 note=56 velocity=48 time=0\n",
      "note_on channel=0 note=68 velocity=59 time=0\n",
      "note_on channel=0 note=66 velocity=59 time=0\n",
      "note_on channel=0 note=61 velocity=56 time=0\n",
      "note_on channel=0 note=65 velocity=68 time=0\n",
      "note_on channel=0 note=56 velocity=60 time=0\n",
      "note_on channel=0 note=48 velocity=62 time=0\n",
      "note_on channel=0 note=66 velocity=68 time=120\n",
      "note_on channel=0 note=63 velocity=56 time=0\n",
      "note_on channel=0 note=56 velocity=56 time=0\n",
      "note_on channel=0 note=65 velocity=63 time=120\n",
      "note_on channel=0 note=61 velocity=53 time=0\n",
      "note_on channel=0 note=56 velocity=53 time=0\n",
      "note_on channel=0 note=49 velocity=62 time=120\n",
      "note_on channel=0 note=44 velocity=62 time=56\n",
      "note_on channel=0 note=66 velocity=57 time=120\n",
      "note_on channel=0 note=60 velocity=48 time=0\n",
      "note_on channel=0 note=56 velocity=48 time=0\n",
      "note_on channel=0 note=37 velocity=62 time=120\n",
      "note_on channel=0 note=65 velocity=60 time=120\n",
      "note_on channel=0 note=61 velocity=50 time=0\n",
      "note_on channel=0 note=56 velocity=50 time=0\n",
      "note_on channel=0 note=44 velocity=62 time=0\n",
      "note_on channel=0 note=60 velocity=50 time=0\n",
      "note_on channel=0 note=68 velocity=60 time=0\n",
      "note_on channel=0 note=66 velocity=50 time=0\n",
      "note_on channel=0 note=61 velocity=56 time=0\n",
      "note_on channel=0 note=65 velocity=56 time=0\n",
      "note_on channel=0 note=70 velocity=68 time=0\n",
      "note_on channel=0 note=56 velocity=50 time=0\n",
      "note_on channel=0 note=65 velocity=50 time=0\n",
      "note_on channel=0 note=68 velocity=60 time=0\n",
      "note_on channel=0 note=60 velocity=56 time=0\n",
      "note_on channel=0 note=66 velocity=56 time=0\n",
      "note_on channel=0 note=70 velocity=68 time=0\n",
      "note_on channel=0 note=56 velocity=52 time=0\n",
      "note_on channel=0 note=68 velocity=62 time=0\n",
      "note_on channel=0 note=66 velocity=52 time=0\n",
      "note_on channel=0 note=61 velocity=55 time=0\n",
      "note_on channel=0 note=65 velocity=64 time=0\n",
      "note_on channel=0 note=56 velocity=62 time=0\n",
      "note_on channel=0 note=48 velocity=68 time=0\n",
      "note_on channel=0 note=66 velocity=62 time=120\n",
      "note_on channel=0 note=63 velocity=52 time=0\n",
      "note_on channel=0 note=56 velocity=52 time=6\n",
      "note_on channel=0 note=36 velocity=70 time=354\n",
      "note_on channel=0 note=48 velocity=72 time=0\n",
      "note_on channel=0 note=63 velocity=57 time=120\n",
      "note_on channel=0 note=56 velocity=57 time=0\n",
      "note_on channel=0 note=66 velocity=69 time=0\n",
      "note_on channel=0 note=36 velocity=59 time=360\n",
      "note_on channel=0 note=48 velocity=70 time=0\n",
      "note_on channel=0 note=37 velocity=63 time=0\n",
      "note_on channel=0 note=49 velocity=77 time=0\n",
      "note_on channel=0 note=66 velocity=73 time=120\n",
      "note_on channel=0 note=61 velocity=62 time=0\n",
      "note_on channel=0 note=58 velocity=62 time=0\n",
      "note_on channel=0 note=36 velocity=62 time=0\n",
      "note_on channel=0 note=48 velocity=73 time=0\n",
      "note_on channel=0 note=37 velocity=61 time=0\n",
      "note_on channel=0 note=49 velocity=72 time=0\n",
      "note_on channel=0 note=38 velocity=69 time=0\n",
      "note_on channel=0 note=50 velocity=81 time=0\n",
      "note_on channel=0 note=66 velocity=77 time=0\n",
      "note_on channel=0 note=58 velocity=63 time=0\n",
      "note_on channel=0 note=37 velocity=64 time=0\n",
      "note_on channel=0 note=49 velocity=78 time=0\n",
      "note_on channel=0 note=38 velocity=63 time=0\n",
      "note_on channel=0 note=50 velocity=75 time=0\n",
      "note_on channel=0 note=39 velocity=70 time=0\n",
      "note_on channel=0 note=51 velocity=82 time=0\n",
      "note_on channel=0 note=66 velocity=80 time=0\n",
      "note_on channel=0 note=58 velocity=68 time=0\n",
      "note_on channel=0 note=39 velocity=69 time=0\n",
      "note_on channel=0 note=51 velocity=81 time=0\n",
      "note_on channel=0 note=40 velocity=73 time=0\n",
      "note_on channel=0 note=52 velocity=88 time=0\n",
      "note_on channel=0 note=66 velocity=84 time=0\n",
      "note_on channel=0 note=58 velocity=70 time=0\n",
      "note_on channel=0 note=40 velocity=71 time=0\n",
      "note_on channel=0 note=52 velocity=85 time=0\n",
      "note_on channel=0 note=41 velocity=78 time=0\n",
      "note_on channel=0 note=53 velocity=91 time=0\n",
      "note_on channel=0 note=65 velocity=88 time=120\n",
      "note_on channel=0 note=61 velocity=73 time=0\n",
      "note_on channel=0 note=58 velocity=73 time=0\n",
      "note_on channel=0 note=40 velocity=77 time=0\n",
      "note_on channel=0 note=52 velocity=90 time=0\n",
      "note_on channel=0 note=41 velocity=77 time=0\n",
      "note_on channel=0 note=53 velocity=90 time=0\n",
      "note_on channel=0 note=42 velocity=82 time=0\n",
      "note_on channel=0 note=54 velocity=97 time=0\n",
      "note_on channel=0 note=61 velocity=79 time=120\n",
      "note_on channel=0 note=64 velocity=94 time=0\n",
      "note_on channel=0 note=58 velocity=79 time=0\n",
      "note_on channel=0 note=41 velocity=80 time=120\n",
      "note_on channel=0 note=53 velocity=95 time=0\n",
      "note_on channel=0 note=42 velocity=78 time=0\n",
      "note_on channel=0 note=54 velocity=91 time=0\n",
      "note_on channel=0 note=43 velocity=89 time=0\n",
      "note_on channel=0 note=55 velocity=105 time=0\n",
      "note_on channel=0 note=64 velocity=96 time=0\n",
      "note_on channel=0 note=61 velocity=81 time=0\n",
      "note_on channel=0 note=55 velocity=81 time=0\n",
      "note_on channel=0 note=44 velocity=81 time=0\n",
      "note_on channel=0 note=56 velocity=96 time=0\n",
      "note_on channel=0 note=65 velocity=96 time=0\n",
      "note_on channel=0 note=61 velocity=81 time=0\n",
      "note_on channel=0 note=56 velocity=81 time=0\n",
      "note_on channel=0 note=45 velocity=86 time=0\n",
      "note_on channel=0 note=57 velocity=103 time=0\n",
      "note_on channel=0 note=66 velocity=94 time=0\n",
      "note_on channel=0 note=63 velocity=79 time=0\n",
      "note_on channel=0 note=57 velocity=79 time=0\n",
      "note_on channel=0 note=33 velocity=89 time=240\n",
      "note_on channel=0 note=45 velocity=106 time=0\n",
      "note_on channel=0 note=32 velocity=89 time=0\n",
      "note_on channel=0 note=44 velocity=106 time=0\n",
      "note_on channel=0 note=66 velocity=100 time=480\n",
      "note_on channel=0 note=61 velocity=83 time=0\n",
      "note_on channel=0 note=56 velocity=83 time=0\n",
      "note_on channel=0 note=66 velocity=92 time=0\n",
      "note_on channel=0 note=61 velocity=77 time=0\n",
      "note_on channel=0 note=56 velocity=77 time=0\n",
      "note_on channel=0 note=56 velocity=83 time=0\n",
      "note_on channel=0 note=66 velocity=100 time=0\n",
      "note_on channel=0 note=61 velocity=83 time=0\n",
      "note_on channel=0 note=32 velocity=52 time=960\n",
      "note_on channel=0 note=44 velocity=62 time=0\n",
      "note_on channel=0 note=56 velocity=52 time=480\n",
      "note_on channel=0 note=66 velocity=52 time=0\n",
      "note_on channel=0 note=60 velocity=52 time=0\n",
      "note_on channel=0 note=68 velocity=62 time=0\n",
      "note_on channel=0 note=68 velocity=57 time=0\n",
      "note_on channel=0 note=66 velocity=48 time=0\n",
      "note_on channel=0 note=60 velocity=48 time=0\n",
      "note_on channel=0 note=56 velocity=48 time=0\n",
      "note_on channel=0 note=68 velocity=62 time=0\n",
      "note_on channel=0 note=66 velocity=52 time=0\n",
      "note_on channel=0 note=60 velocity=52 time=0\n",
      "note_on channel=0 note=56 velocity=52 time=0\n",
      "note_on channel=0 note=37 velocity=63 time=960\n",
      "note_on channel=0 note=65 velocity=70 time=360\n",
      "note_on channel=0 note=56 velocity=59 time=0\n",
      "note_on channel=0 note=64 velocity=63 time=0\n",
      "note_on channel=0 note=55 velocity=53 time=0\n",
      "note_on channel=0 note=65 velocity=63 time=0\n",
      "note_on channel=0 note=56 velocity=53 time=0\n",
      "note_on channel=0 note=49 velocity=63 time=0\n",
      "note_on channel=0 note=65 velocity=72 time=360\n",
      "note_on channel=0 note=56 velocity=61 time=0\n",
      "note_on channel=0 note=64 velocity=75 time=0\n",
      "note_on channel=0 note=55 velocity=63 time=0\n",
      "note_on channel=0 note=56 velocity=57 time=0\n",
      "note_on channel=0 note=65 velocity=69 time=0\n",
      "note_on channel=0 note=53 velocity=77 time=0\n",
      "note_on channel=0 note=65 velocity=63 time=120\n",
      "note_on channel=0 note=56 velocity=53 time=0\n",
      "note_on channel=0 note=61 velocity=53 time=0\n",
      "note_on channel=0 note=57 velocity=59 time=0\n",
      "note_on channel=0 note=61 velocity=59 time=0\n",
      "note_on channel=0 note=66 velocity=70 time=0\n",
      "note_on channel=0 note=58 velocity=62 time=0\n",
      "note_on channel=0 note=61 velocity=62 time=0\n",
      "note_on channel=0 note=67 velocity=75 time=0\n",
      "note_on channel=0 note=59 velocity=70 time=0\n",
      "note_on channel=0 note=61 velocity=70 time=0\n",
      "note_on channel=0 note=68 velocity=84 time=0\n",
      "note_on channel=0 note=58 velocity=64 time=0\n",
      "note_on channel=0 note=61 velocity=64 time=0\n",
      "note_on channel=0 note=67 velocity=77 time=0\n",
      "note_on channel=0 note=57 velocity=61 time=0\n",
      "note_on channel=0 note=61 velocity=61 time=0\n",
      "note_on channel=0 note=66 velocity=72 time=0\n",
      "note_on channel=0 note=56 velocity=57 time=0\n",
      "note_on channel=0 note=61 velocity=57 time=0\n",
      "note_on channel=0 note=65 velocity=69 time=0\n",
      "note_on channel=0 note=49 velocity=63 time=120\n",
      "note_on channel=0 note=59 velocity=56 time=120\n",
      "note_on channel=0 note=61 velocity=56 time=0\n",
      "note_on channel=0 note=65 velocity=56 time=0\n",
      "note_on channel=0 note=68 velocity=66 time=0\n",
      "note_on channel=0 note=70 velocity=71 time=0\n",
      "note_on channel=0 note=59 velocity=64 time=0\n",
      "note_on channel=0 note=61 velocity=64 time=0\n",
      "note_on channel=0 note=65 velocity=64 time=0\n",
      "note_on channel=0 note=71 velocity=77 time=0\n",
      "note_on channel=0 note=70 velocity=72 time=0\n",
      "note_on channel=0 note=68 velocity=71 time=0\n",
      "note_on channel=0 note=54 velocity=73 time=1\n",
      "note_on channel=0 note=66 velocity=87 time=0\n",
      "note_on channel=0 note=61 velocity=73 time=0\n",
      "note_on channel=0 note=58 velocity=73 time=0\n",
      "note_on channel=0 note=63 velocity=70 time=149\n",
      "note_on channel=0 note=59 velocity=70 time=0\n",
      "note_on channel=0 note=54 velocity=70 time=0\n",
      "note_on channel=0 note=66 velocity=83 time=0\n",
      "note_on channel=0 note=61 velocity=73 time=150\n",
      "note_on channel=0 note=66 velocity=87 time=0\n",
      "note_on channel=0 note=58 velocity=73 time=0\n",
      "note_on channel=0 note=54 velocity=73 time=0\n",
      "note_on channel=0 note=42 velocity=47 time=390\n",
      "note_on channel=0 note=54 velocity=56 time=0\n",
      "note_on channel=0 note=66 velocity=51 time=150\n",
      "note_on channel=0 note=63 velocity=42 time=0\n",
      "note_on channel=0 note=59 velocity=42 time=0\n",
      "note_on channel=0 note=66 velocity=56 time=150\n",
      "note_on channel=0 note=61 velocity=47 time=0\n",
      "note_on channel=0 note=58 velocity=47 time=0\n",
      "note_on channel=0 note=37 velocity=48 time=390\n",
      "note_on channel=0 note=49 velocity=59 time=0\n",
      "note_on channel=0 note=61 velocity=48 time=150\n",
      "note_on channel=0 note=65 velocity=59 time=0\n",
      "note_on channel=0 note=56 velocity=48 time=0\n",
      "note_on channel=0 note=59 velocity=50 time=150\n",
      "note_on channel=0 note=63 velocity=60 time=0\n",
      "note_on channel=0 note=56 velocity=50 time=0\n",
      "note_on channel=0 note=44 velocity=62 time=150\n",
      "note_on channel=0 note=49 velocity=66 time=0\n",
      "note_on channel=0 note=63 velocity=70 time=183\n",
      "note_on channel=0 note=59 velocity=59 time=0\n",
      "note_on channel=0 note=56 velocity=59 time=0\n",
      "note_on channel=0 note=61 velocity=73 time=0\n",
      "note_on channel=0 note=59 velocity=62 time=0\n",
      "note_on channel=0 note=56 velocity=62 time=0\n",
      "note_on channel=0 note=54 velocity=73 time=0\n",
      "note_on channel=0 note=58 velocity=73 time=0\n",
      "note_on channel=0 note=61 velocity=73 time=0\n",
      "note_on channel=0 note=66 velocity=87 time=0\n",
      "note_on channel=0 note=66 velocity=82 time=150\n",
      "note_on channel=0 note=63 velocity=69 time=0\n",
      "note_on channel=0 note=59 velocity=69 time=0\n",
      "note_on channel=0 note=54 velocity=69 time=0\n",
      "note_on channel=0 note=61 velocity=73 time=150\n",
      "note_on channel=0 note=66 velocity=87 time=0\n",
      "note_on channel=0 note=58 velocity=73 time=0\n",
      "note_on channel=0 note=54 velocity=73 time=0\n",
      "note_on channel=0 note=42 velocity=48 time=390\n",
      "note_on channel=0 note=54 velocity=59 time=0\n",
      "note_on channel=0 note=66 velocity=55 time=150\n",
      "note_on channel=0 note=63 velocity=46 time=0\n",
      "note_on channel=0 note=59 velocity=46 time=0\n",
      "note_on channel=0 note=66 velocity=59 time=150\n",
      "note_on channel=0 note=61 velocity=48 time=0\n",
      "note_on channel=0 note=58 velocity=48 time=0\n",
      "note_on channel=0 note=47 velocity=66 time=390\n",
      "note_on channel=0 note=63 velocity=66 time=120\n",
      "note_on channel=0 note=56 velocity=56 time=0\n",
      "note_on channel=0 note=53 velocity=59 time=0\n",
      "note_on channel=0 note=58 velocity=59 time=0\n",
      "note_on channel=0 note=62 velocity=70 time=0\n",
      "note_on channel=0 note=46 velocity=66 time=0\n",
      "note_on channel=0 note=47 velocity=66 time=0\n",
      "note_on channel=0 note=63 velocity=66 time=120\n",
      "note_on channel=0 note=56 velocity=56 time=0\n",
      "note_on channel=0 note=53 velocity=62 time=0\n",
      "note_on channel=0 note=58 velocity=62 time=0\n",
      "note_on channel=0 note=62 velocity=73 time=0\n",
      "note_on channel=0 note=46 velocity=69 time=0\n",
      "note_on channel=0 note=47 velocity=80 time=120\n",
      "note_on channel=0 note=68 velocity=69 time=120\n",
      "note_on channel=0 note=59 velocity=57 time=0\n",
      "note_on channel=0 note=63 velocity=57 time=0\n",
      "note_on channel=0 note=49 velocity=82 time=0\n",
      "note_on channel=0 note=66 velocity=66 time=120\n",
      "note_on channel=0 note=61 velocity=56 time=0\n",
      "note_on channel=0 note=58 velocity=56 time=0\n",
      "note_on channel=0 note=47 velocity=84 time=120\n",
      "note_on channel=0 note=59 velocity=60 time=120\n",
      "note_on channel=0 note=65 velocity=60 time=0\n",
      "note_on channel=0 note=61 velocity=60 time=0\n",
      "note_on channel=0 note=68 velocity=71 time=0\n",
      "note_on channel=0 note=46 velocity=86 time=14\n",
      "note_on channel=0 note=61 velocity=60 time=120\n",
      "note_on channel=0 note=70 velocity=71 time=0\n",
      "note_on channel=0 note=58 velocity=60 time=0\n",
      "note_on channel=0 note=66 velocity=60 time=0\n",
      "note_on channel=0 note=47 velocity=88 time=120\n",
      "note_on channel=0 note=68 velocity=73 time=120\n",
      "note_on channel=0 note=63 velocity=62 time=0\n",
      "note_on channel=0 note=59 velocity=62 time=0\n",
      "note_on channel=0 note=49 velocity=89 time=120\n",
      "note_on channel=0 note=66 velocity=73 time=120\n",
      "note_on channel=0 note=61 velocity=62 time=0\n",
      "note_on channel=0 note=58 velocity=62 time=0\n",
      "note_on channel=0 note=47 velocity=91 time=120\n",
      "note_on channel=0 note=59 velocity=63 time=120\n",
      "note_on channel=0 note=65 velocity=63 time=0\n",
      "note_on channel=0 note=61 velocity=63 time=0\n",
      "note_on channel=0 note=68 velocity=75 time=0\n",
      "note_on channel=0 note=46 velocity=94 time=120\n",
      "note_on channel=0 note=58 velocity=63 time=120\n",
      "note_on channel=0 note=66 velocity=63 time=0\n",
      "note_on channel=0 note=61 velocity=63 time=0\n",
      "note_on channel=0 note=70 velocity=75 time=0\n",
      "note_on channel=0 note=47 velocity=94 time=120\n",
      "note_on channel=0 note=63 velocity=70 time=0\n",
      "note_on channel=0 note=56 velocity=70 time=0\n",
      "note_on channel=0 note=68 velocity=82 time=0\n",
      "note_on channel=0 note=47 velocity=94 time=0\n",
      "note_on channel=0 note=48 velocity=104 time=0\n",
      "note_on channel=0 note=68 velocity=85 time=0\n",
      "note_on channel=0 note=63 velocity=71 time=0\n",
      "note_on channel=0 note=66 velocity=71 time=0\n",
      "note_on channel=0 note=56 velocity=71 time=0\n",
      "note_on channel=0 note=48 velocity=100 time=0\n",
      "note_on channel=0 note=49 velocity=106 time=0\n",
      "note_on channel=0 note=61 velocity=77 time=240\n",
      "note_on channel=0 note=66 velocity=77 time=0\n",
      "note_on channel=0 note=56 velocity=77 time=0\n",
      "note_on channel=0 note=68 velocity=92 time=0\n",
      "note_on channel=0 note=73 velocity=94 time=0\n",
      "note_on channel=0 note=66 velocity=79 time=0\n",
      "note_on channel=0 note=68 velocity=79 time=0\n",
      "note_on channel=0 note=37 velocity=47 time=9\n",
      "note_on channel=0 note=49 velocity=47 time=0\n",
      "note_on channel=0 note=56 velocity=47 time=10\n",
      "note_on channel=0 note=61 velocity=47 time=10\n",
      "note_on channel=0 note=66 velocity=56 time=10\n",
      "note_on channel=0 note=49 velocity=30 time=0\n",
      "note_on channel=0 note=59 velocity=30 time=0\n",
      "note_on channel=0 note=66 velocity=56 time=0\n",
      "note_on channel=0 note=49 velocity=56 time=0\n",
      "note_on channel=0 note=63 velocity=47 time=0\n",
      "note_on channel=0 note=56 velocity=30 time=0\n",
      "note_on channel=0 note=65 velocity=56 time=0\n",
      "note_on channel=0 note=61 velocity=47 time=0\n",
      "note_on channel=0 note=54 velocity=48 time=0\n",
      "note_on channel=0 note=58 velocity=48 time=0\n",
      "note_on channel=0 note=66 velocity=59 time=0\n",
      "note_on channel=0 note=61 velocity=44 time=0\n",
      "note_on channel=0 note=59 velocity=50 time=0\n",
      "note_on channel=0 note=68 velocity=60 time=0\n",
      "note_on channel=0 note=56 velocity=44 time=0\n",
      "note_on channel=0 note=65 velocity=52 time=0\n",
      "note_on channel=0 note=66 velocity=60 time=0\n",
      "note_on channel=0 note=58 velocity=50 time=0\n",
      "note_on channel=0 note=54 velocity=50 time=0\n",
      "note_on channel=0 note=61 velocity=42 time=0\n",
      "note_on channel=0 note=59 velocity=50 time=0\n",
      "note_on channel=0 note=68 velocity=60 time=0\n",
      "note_on channel=0 note=65 velocity=51 time=0\n",
      "note_on channel=0 note=56 velocity=42 time=0\n",
      "note_on channel=0 note=54 velocity=53 time=0\n",
      "note_on channel=0 note=66 velocity=63 time=0\n",
      "note_on channel=0 note=58 velocity=53 time=0\n",
      "note_on channel=0 note=63 velocity=63 time=240\n",
      "note_on channel=0 note=53 velocity=53 time=0\n",
      "note_on channel=0 note=59 velocity=53 time=0\n",
      "note_on channel=0 note=49 velocity=48 time=0\n",
      "note_on channel=0 note=61 velocity=57 time=0\n",
      "note_on channel=0 note=63 velocity=66 time=0\n",
      "note_on channel=0 note=58 velocity=56 time=0\n",
      "note_on channel=0 note=54 velocity=56 time=0\n",
      "note_on channel=0 note=49 velocity=48 time=0\n",
      "note_on channel=0 note=61 velocity=59 time=0\n",
      "note_on channel=0 note=59 velocity=56 time=0\n",
      "note_on channel=0 note=53 velocity=56 time=0\n",
      "note_on channel=0 note=63 velocity=68 time=0\n",
      "note_on channel=0 note=61 velocity=62 time=0\n",
      "note_on channel=0 note=49 velocity=52 time=0\n",
      "note_on channel=0 note=66 velocity=59 time=0\n",
      "note_on channel=0 note=54 velocity=48 time=0\n",
      "note_on channel=0 note=58 velocity=48 time=0\n",
      "note_on channel=0 note=61 velocity=45 time=0\n",
      "note_on channel=0 note=68 velocity=60 time=0\n",
      "note_on channel=0 note=59 velocity=50 time=0\n",
      "note_on channel=0 note=56 velocity=46 time=0\n",
      "note_on channel=0 note=65 velocity=55 time=0\n",
      "note_on channel=0 note=58 velocity=51 time=0\n",
      "note_on channel=0 note=66 velocity=61 time=0\n",
      "note_on channel=0 note=54 velocity=51 time=0\n",
      "note_on channel=0 note=61 velocity=46 time=0\n",
      "note_on channel=0 note=59 velocity=51 time=0\n",
      "note_on channel=0 note=68 velocity=61 time=0\n",
      "note_on channel=0 note=56 velocity=47 time=0\n",
      "note_on channel=0 note=65 velocity=56 time=0\n",
      "note_on channel=0 note=58 velocity=55 time=0\n",
      "note_on channel=0 note=66 velocity=64 time=0\n",
      "note_on channel=0 note=54 velocity=55 time=0\n",
      "note_on channel=0 note=61 velocity=59 time=0\n",
      "note_on channel=0 note=63 velocity=70 time=0\n",
      "note_on channel=0 note=59 velocity=59 time=0\n",
      "note_on channel=0 note=53 velocity=59 time=0\n",
      "note_on channel=0 note=49 velocity=53 time=0\n",
      "note_on channel=0 note=61 velocity=63 time=0\n",
      "note_on channel=0 note=54 velocity=66 time=0\n",
      "note_on channel=0 note=63 velocity=79 time=0\n",
      "note_on channel=0 note=58 velocity=66 time=0\n",
      "note_on channel=0 note=61 velocity=72 time=0\n",
      "note_on channel=0 note=49 velocity=61 time=0\n",
      "note_on channel=0 note=53 velocity=70 time=0\n",
      "note_on channel=0 note=59 velocity=70 time=0\n",
      "note_on channel=0 note=63 velocity=84 time=0\n",
      "note_on channel=0 note=61 velocity=81 time=0\n",
      "note_on channel=0 note=49 velocity=69 time=0\n",
      "note_on channel=0 note=54 velocity=68 time=0\n",
      "note_on channel=0 note=61 velocity=70 time=15\n",
      "note_on channel=0 note=70 velocity=90 time=15\n",
      "note_on channel=0 note=49 velocity=79 time=240\n",
      "note_on channel=0 note=59 velocity=79 time=0\n",
      "note_on channel=0 note=56 velocity=79 time=0\n",
      "note_on channel=0 note=65 velocity=94 time=0\n",
      "note_on channel=0 note=54 velocity=77 time=0\n",
      "note_on channel=0 note=58 velocity=77 time=0\n",
      "note_on channel=0 note=66 velocity=90 time=0\n",
      "note_on channel=0 note=37 velocity=78 time=240\n",
      "note_on channel=0 note=47 velocity=78 time=0\n",
      "note_on channel=0 note=53 velocity=93 time=0\n",
      "note_on channel=0 note=42 velocity=75 time=0\n",
      "note_on channel=0 note=46 velocity=75 time=0\n",
      "note_on channel=0 note=54 velocity=89 time=0\n",
      "note_on channel=0 note=37 velocity=80 time=240\n",
      "note_on channel=0 note=30 velocity=71 time=0\n",
      "note_on channel=0 note=42 velocity=85 time=0\n",
      "note_on channel=0 note=25 velocity=68 time=0\n",
      "note_on channel=0 note=37 velocity=80 time=0\n",
      "note_on channel=0 note=30 velocity=71 time=0\n",
      "note_on channel=0 note=42 velocity=85 time=0\n",
      "note_on channel=0 note=25 velocity=68 time=0\n",
      "note_on channel=0 note=37 velocity=80 time=0\n",
      "note_on channel=0 note=30 velocity=71 time=0\n",
      "note_on channel=0 note=42 velocity=85 time=0\n",
      "note_on channel=0 note=42 velocity=53 time=480\n",
      "note_on channel=0 note=49 velocity=48 time=0\n",
      "note_on channel=0 note=58 velocity=46 time=0\n",
      "note_on channel=0 note=42 velocity=56 time=0\n",
      "note_on channel=0 note=49 velocity=51 time=0\n",
      "note_on channel=0 note=58 velocity=49 time=0\n",
      "note_on channel=0 note=46 velocity=57 time=0\n",
      "note_on channel=0 note=54 velocity=52 time=0\n",
      "note_on channel=0 note=61 velocity=49 time=0\n",
      "note_on channel=0 note=49 velocity=59 time=0\n",
      "note_on channel=0 note=58 velocity=52 time=0\n",
      "note_on channel=0 note=66 velocity=51 time=0\n",
      "note_on channel=0 note=54 velocity=61 time=0\n",
      "note_on channel=0 note=61 velocity=54 time=0\n",
      "note_on channel=0 note=70 velocity=51 time=0\n",
      "note_on channel=0 note=58 velocity=61 time=0\n",
      "note_on channel=0 note=66 velocity=56 time=0\n",
      "note_on channel=0 note=73 velocity=54 time=0\n",
      "note_on channel=0 note=61 velocity=65 time=0\n",
      "note_on channel=0 note=70 velocity=58 time=0\n",
      "note_on channel=0 note=78 velocity=56 time=0\n",
      "note_on channel=0 note=66 velocity=67 time=0\n",
      "note_on channel=0 note=70 velocity=59 time=0\n",
      "note_on channel=0 note=78 velocity=58 time=0\n",
      "note_on channel=0 note=61 velocity=68 time=0\n",
      "note_on channel=0 note=70 velocity=60 time=0\n",
      "note_on channel=0 note=78 velocity=59 time=0\n",
      "note_on channel=0 note=66 velocity=72 time=0\n",
      "note_on channel=0 note=70 velocity=61 time=0\n",
      "note_on channel=0 note=78 velocity=59 time=0\n",
      "note_on channel=0 note=61 velocity=72 time=0\n",
      "note_on channel=0 note=70 velocity=65 time=0\n",
      "note_on channel=0 note=78 velocity=63 time=0\n",
      "note_on channel=0 note=66 velocity=73 time=0\n",
      "note_on channel=0 note=70 velocity=67 time=0\n",
      "note_on channel=0 note=78 velocity=66 time=0\n",
      "note_on channel=0 note=61 velocity=75 time=0\n",
      "note_on channel=0 note=70 velocity=69 time=0\n",
      "note_on channel=0 note=78 velocity=69 time=0\n",
      "note_on channel=0 note=66 velocity=81 time=0\n",
      "note_on channel=0 note=54 velocity=87 time=80\n",
      "note_on channel=0 note=66 velocity=87 time=0\n",
      "note_on channel=0 note=63 velocity=83 time=0\n",
      "note_on channel=0 note=51 velocity=83 time=0\n",
      "note_on channel=0 note=61 velocity=85 time=20\n",
      "note_on channel=0 note=49 velocity=85 time=0\n",
      "note_on channel=0 note=58 velocity=86 time=20\n",
      "note_on channel=0 note=46 velocity=86 time=0\n",
      "note_on channel=0 note=56 velocity=86 time=20\n",
      "note_on channel=0 note=44 velocity=86 time=0\n",
      "note_on channel=0 note=54 velocity=87 time=20\n",
      "note_on channel=0 note=42 velocity=87 time=0\n",
      "note_on channel=0 note=51 velocity=88 time=20\n",
      "note_on channel=0 note=39 velocity=88 time=0\n",
      "note_on channel=0 note=37 velocity=89 time=20\n",
      "note_on channel=0 note=49 velocity=89 time=0\n",
      "note_on channel=0 note=34 velocity=89 time=20\n",
      "note_on channel=0 note=46 velocity=89 time=0\n",
      "note_on channel=0 note=32 velocity=92 time=20\n",
      "note_on channel=0 note=44 velocity=92 time=0\n",
      "note_on channel=0 note=30 velocity=99 time=20\n",
      "note_on channel=0 note=42 velocity=99 time=0\n",
      "note_on channel=0 note=54 velocity=93 time=323\n",
      "note_on channel=0 note=61 velocity=98 time=15\n",
      "note_on channel=0 note=70 velocity=108 time=15\n",
      "note_on channel=0 note=30 velocity=102 time=0\n",
      "note_on channel=0 note=42 velocity=102 time=0\n",
      "3\n",
      "4\n",
      "5\n",
      "6\n"
     ]
    }
   ],
   "source": [
    "song = md.MidiFile('./midis/chopinblack.mid')\n",
    "trackNotes = defaultdict(list)\n",
    "pMatrices = defaultdict(list)\n",
    "for i, track in enumerate(song.tracks):\n",
    "    print(i)\n",
    "    pMatrix = np.zeros((128, 128))\n",
    "    prevNote = None\n",
    "    for msg in track:\n",
    "        if msg.type == 'note_on' and msg.velocity:\n",
    "            print(msg)\n",
    "            if prevNote:\n",
    "                pMatrix[prevNote][msg.note] += 1\n",
    "            prevNote = msg.note\n",
    "    if pMatrix.any():\n",
    "        pMatrices[i] = preprocessing.normalize(pMatrix, axis =1, norm = 'l1')\n"
   ]
  },
  {
   "cell_type": "code",
   "execution_count": null,
   "metadata": {
    "collapsed": true
   },
   "outputs": [],
   "source": []
  }
 ],
 "metadata": {
  "anaconda-cloud": {},
  "kernelspec": {
   "display_name": "Python 3",
   "language": "python",
   "name": "python3"
  },
  "language_info": {
   "codemirror_mode": {
    "name": "ipython",
    "version": 3
   },
   "file_extension": ".py",
   "mimetype": "text/x-python",
   "name": "python",
   "nbconvert_exporter": "python",
   "pygments_lexer": "ipython3",
   "version": "3.6.1"
  }
 },
 "nbformat": 4,
 "nbformat_minor": 1
}
